<svg width="303" height="70" viewBox="0 0 303 70" fill="none" xmlns="http://www.w3.org/2000/svg">
<g clip-path="url(#clip0_144_3399)">
<path d="M75.6201 52.1452V5.81055H103.191V11.6208H81.3385V25.8791H100.982V31.6893H81.3385V46.2242H104.732V52.0345H75.6387V52.1636L75.6201 52.1452Z" fill="white"/>
<path d="M133.676 52.1453L124.208 39.8422L114.739 52.1453H108.055L121.014 35.692L107.368 18.667H114.887L124.208 31.3943L133.676 18.667H141.066L128.107 35.692L140.36 52.1453H133.676Z" fill="white"/>
<path d="M149.55 47.1834V70.0003H143.832V35.8211C143.832 27.0965 150.516 17.8369 160.95 17.8369C171.384 17.8369 179.461 24.4772 179.461 35.3969C179.461 46.3165 171.384 53.3811 162.194 53.3811C157.738 53.3811 151.76 51.4443 149.513 47.165L149.55 47.1834ZM173.501 35.4338C173.501 27.9634 168.636 23.5365 159.985 23.9423C155.807 24.0899 149.402 27.1334 149.959 37.7763C150.107 41.2256 153.709 47.7368 161.656 47.7368C168.469 47.7368 173.482 43.8633 173.482 35.4338H173.501Z" fill="white"/>
<path d="M184.362 52.145V18.6667H190.081V22.2636C192.866 19.0725 197.192 17.9658 201.777 17.9658V24.0528C201.09 23.9052 194.258 23.0936 190.081 31.9289V52.2741H184.362V52.1266V52.145Z" fill="white"/>
<path d="M203.3 35.4154C203.3 25.7316 210.262 17.8555 219.861 17.8555C231.836 17.8555 236.292 25.7316 236.292 35.8397V38.6065H209.557C209.965 44.9701 215.683 48.2903 220.975 48.1427C224.874 47.9951 227.529 46.9069 230.314 44.1401L234.083 48.0136C230.611 51.3337 226.136 53.5472 220.715 53.5472C210.559 53.3996 203.318 45.9477 203.318 35.4154H203.3ZM219.452 23.5182C214.031 23.5182 209.854 28.2217 209.557 33.3495H230.295C230.295 28.3693 226.675 23.5182 219.434 23.5182H219.452Z" fill="white"/>
<path d="M239.225 47.4414L243.403 43.697C243.254 43.697 245.482 45.9104 245.779 46.058C246.763 46.888 247.728 47.4414 248.972 47.7181C252.593 48.6957 259.128 48.4005 259.704 43.4203C259.982 40.6535 257.903 39.1225 255.526 38.1634C252.463 37.0567 249.121 36.6324 246.057 35.249C242.586 33.7181 240.339 31.0988 240.339 27.2253C240.339 17.1173 254.821 15.4756 261.375 20.1608C261.653 20.4374 264.846 23.3518 264.716 23.3518L260.539 26.672C258.46 24.1818 256.51 22.946 252.036 22.946C249.808 22.946 246.744 23.9052 246.187 26.2662C245.352 29.5863 249.121 30.8406 251.609 31.5231C254.951 32.3531 258.571 32.9065 261.505 34.7141C265.533 37.2042 266.517 42.5903 264.976 46.7589C263.305 51.3149 258.293 53.1225 253.837 53.2701C248.545 53.5468 243.941 51.8867 240.191 48.1423C239.912 48.1423 239.207 47.4598 239.207 47.4598L239.225 47.4414Z" fill="white"/>
<path d="M268.616 47.4414L272.793 43.697C272.645 43.697 274.873 45.9104 275.17 46.058C276.154 46.888 277.119 47.4414 278.363 47.7181C281.983 48.6957 288.519 48.4005 289.094 43.4203C289.373 40.6535 287.293 39.1225 284.917 38.1634C281.853 37.0567 278.512 36.6324 275.448 35.249C271.976 33.7181 269.73 31.0988 269.73 27.2253C269.73 17.1173 284.211 15.4756 290.765 20.1608C291.044 20.4374 294.237 23.3518 294.107 23.3518L289.93 26.672C287.85 24.1818 285.901 22.946 281.426 22.946C279.198 22.946 276.135 23.9052 275.578 26.2662C274.743 29.5863 278.512 30.8406 280.999 31.5231C284.341 32.3531 287.962 32.9065 290.895 34.7141C294.924 37.2042 295.908 42.5903 294.367 46.7589C292.696 51.3149 287.683 53.1225 283.227 53.2701C277.936 53.5468 273.332 51.8867 269.581 48.1423C269.303 48.1423 268.597 47.4598 268.597 47.4598L268.616 47.4414Z" fill="white"/>
<path d="M295.759 18.667V15.0702H294.515V14.3877H297.857V15.0702H296.613V18.667H295.778H295.759Z" fill="white"/>
<path d="M302.034 18.6669V15.3467L300.79 18.6669H300.512L299.268 15.3467V18.6669H298.581V14.3691H299.695L300.809 17.2835L301.923 14.3691H303.037V18.6669H302.071H302.034Z" fill="white"/>
<path d="M36.891 52.1452L32.7136 41.078H10.1743L5.99688 52.1452H0L18.102 5.81055H24.6373L42.5908 52.1452H36.891ZM21.1654 12.4509L12.6621 35.4153H30.3557L21.1654 12.4509Z" fill="white"/>
<path d="M46.3784 52.1452V5.81055H52.2268V52.1452H46.3784Z" fill="white"/>
<path d="M60.9897 52.1445V19.3672H66.8381V52.1445H60.9897Z" fill="white"/>
<path d="M72.4081 8.70619V8.15283C67.9523 8.00527 64.3319 4.42688 64.2019 0H63.3664C63.2179 4.42688 59.616 8.02372 55.1602 8.15283V8.70619C59.616 8.85375 63.2364 12.4321 63.3664 16.859H64.2019C64.3504 12.4321 67.9523 8.83531 72.4081 8.70619Z" fill="white"/>
</g>
<defs>
<clipPath id="clip0_144_3399">
<rect width="303" height="70" fill="white"/>
</clipPath>
</defs>
</svg>
