<svg width="951" height="1221" viewBox="0 0 951 1221" fill="none" xmlns="http://www.w3.org/2000/svg">
<path d="M943.048 1338.63L937.944 1332.81C991.323 1260.03 1013.46 1253.53 1089.67 1240.11H1091.94C1189.32 1223 1209.66 1219.32 1229.46 1114.39C1256.56 971.479 1282.08 760.067 1265.11 634.69C1251.94 537.109 1196.15 484.171 1136.77 428.068C1093.46 387.103 1048.7 344.769 1022.56 283.449C969.737 159.27 1038.15 -28.8795 1098.42 -194.879C1128.36 -277.152 1156.56 -354.806 1166.91 -416.126L1173.8 -414.416C1163.32 -352.155 1134.91 -274.073 1104.84 -191.373C1045.12 -27.1691 977.392 159.27 1028.98 279.43C1054.36 339.295 1098.49 380.859 1141.18 421.312C1198.91 475.875 1258.42 532.491 1272.22 633.322C1289.39 759.896 1263.66 972.676 1236.49 1116.35C1215.8 1227.02 1192.08 1231.13 1093.18 1248.57H1090.91C1014.84 1261.91 994.978 1267.73 943.048 1338.63Z" fill="url(#paint0_linear_142_2388)"/>
<path d="M936.219 1364.36L929.805 1361.11C953.736 1287.82 1002.49 1268.66 1049.53 1249.93C1097.8 1231.03 1143.11 1213.16 1166.08 1142.09C1180.22 1098.39 1186.22 1043.83 1191.94 990.972C1195.49 953.169 1200.79 915.649 1207.8 878.596C1210.49 865.767 1213.46 852.939 1216.42 839.426C1232.21 769.469 1248.49 697.117 1237.46 627.843C1221.46 527.44 1160.84 471.166 1096.7 411.557C1042.98 361.697 987.46 310.127 962.012 230.591C922.426 106.583 988.77 -45.2198 1052.91 -192.062C1088.7 -273.993 1122.56 -351.476 1134.84 -418.27L1141.73 -416.388C1129.18 -347.97 1095.18 -270.486 1058.98 -187.957C995.597 -42.5686 930.081 107.182 968.425 227.426C993.115 304.397 1047.87 355.71 1100.84 404.715C1162.91 462.614 1227.73 522.565 1244.21 626.133C1255.59 697.459 1239.04 770.837 1223.11 841.735C1220.15 854.906 1217.18 867.905 1214.49 880.734C1207.54 917.386 1202.31 954.508 1198.84 991.913C1192.97 1045.19 1186.97 1100.36 1172.49 1145C1148.28 1219.83 1099.18 1239.07 1051.67 1257.89C1004.15 1276.7 958.908 1294.75 936.219 1364.36Z" fill="url(#paint1_linear_142_2388)"/>
<path d="M935.53 1397.37L928.634 1395.49C940.358 1332.46 968.426 1313.99 1000.91 1292.87C1013.62 1284.81 1025.97 1275.87 1037.87 1266.1C1078.29 1231.89 1081.67 1219.32 1094.22 1173.13C1096.15 1166.12 1098.29 1158.25 1100.77 1149.44C1112.42 1108.74 1121.46 1064.95 1129.6 1022.61C1138.76 973.153 1150.28 924.406 1164.08 876.627C1168.01 863.885 1172.22 850.971 1176.49 837.629C1199.66 766.047 1223.66 692.241 1212.84 618.349C1197.04 510.933 1129.53 451.238 1058.01 387.951C998.771 335.355 937.599 281.561 910.014 197.834C869.6 75.2804 942.358 -67.2859 1012.63 -205.319C1052.08 -282.888 1089.32 -355.754 1103.53 -419.725L1110.42 -417.501C1095.94 -351.905 1058.49 -278.27 1018.77 -200.359C949.392 -64.207 877.6 76.5632 916.703 195.012C943.461 276.173 1003.81 329.539 1062.22 381.195C1131.67 442.6 1203.53 506.143 1219.87 616.981C1231.04 693.096 1206.7 768.27 1183.11 840.965C1178.84 854.135 1174.63 867.135 1170.77 879.877C1157.09 927.449 1145.74 976 1136.77 1025.27C1128.29 1068.03 1119.46 1111.81 1107.8 1152.87C1105.32 1161.42 1103.18 1169.46 1101.25 1176.47C1088.77 1222.4 1084.56 1237.79 1042.22 1273.71C1030.13 1283.71 1017.58 1292.82 1004.63 1300.99C972.082 1321.35 946.565 1338.19 935.53 1397.37Z" fill="url(#paint2_linear_142_2388)"/>
<path d="M939.324 1435L932.427 1434.32C935.875 1378.64 960.703 1327.5 984.633 1278.07C1003.39 1239.41 1022.84 1199.39 1032.15 1157.14C1044.15 1103.26 1070.56 1036.55 1098.56 965.998C1146.84 843.444 1202.01 704.555 1189.11 606.803C1173.8 491.775 1094.84 424.982 1018.49 360.327C953.254 305.079 885.738 248.036 855.945 160.631C814.567 38.5051 894.29 -93.7128 971.668 -221.484C1015.12 -293.237 1056.15 -360.971 1072.56 -422.633L1079.11 -419.896C1062.29 -356.951 1020.98 -288.704 977.185 -216.352C900.979 -90.463 822.153 39.7024 862.29 157.296C891.324 242.819 957.944 298.75 1022.36 353.314C1099.94 418.91 1180.15 486.815 1195.94 605.349C1209.32 705.838 1153.73 846.01 1104.7 969.675C1077.11 1039.89 1050.63 1106.51 1038.84 1159.36C1029.18 1202.72 1009.6 1243.26 990.564 1282.43C965.944 1333.49 942.634 1381.38 939.324 1435Z" fill="url(#paint3_linear_142_2388)"/>
<path d="M938.634 1475.45C936.841 1380.01 942.841 1234.79 960.427 1141.49C974.771 1065.03 1017.46 989.772 1062.7 910.065C1121.05 807.438 1181.32 700.877 1173.46 593.631C1164.7 474.413 1072.77 397.87 983.875 323.979C920.013 270.783 853.946 215.878 821.325 145.92C757.326 9.0842 844.842 -113.47 929.53 -231.747C974.909 -295.034 1021.74 -360.031 1041.87 -425.285L1048.29 -422.292C1027.6 -355.926 980.426 -289.903 934.703 -226.103C851.945 -110.134 765.74 9.85391 827.256 141.644C859.118 210.062 921.6 261.376 987.668 316.88C1077.94 391.883 1171.25 469.538 1180.35 592.862C1188.42 702.929 1127.39 810.517 1068.29 914.683C1023.53 993.62 981.185 1068.62 967.116 1143.03C949.668 1235.74 943.737 1380.01 945.53 1474.94L938.634 1475.45Z" fill="url(#paint4_linear_142_2388)"/>
<path d="M952.082 1516.51H945.185C945.599 1460.32 929.806 1407.13 914.565 1355.73C895.324 1290.64 875.393 1223.42 887.738 1149.28C902.496 1061.1 961.116 977.375 1017.8 896.556C1087.32 797.349 1159.18 694.722 1152.7 582.26C1145.46 457.654 1043.18 374.953 944.22 294.99C871.117 235.808 801.946 179.962 767.808 108.123C699.878 -34.6145 793.946 -142.031 885.048 -245.941C935.323 -303.412 987.322 -362.765 1011.46 -427.42L1017.74 -423.828C992.771 -357.719 940.289 -297.768 889.324 -239.698C796.291 -133.479 708.43 -33.0751 773.532 103.676C806.911 173.804 875.324 229.137 947.806 287.72C1048.15 368.881 1151.87 452.693 1159.32 581.576C1166.22 697.63 1093.25 801.54 1022.77 902.029C966.702 982.078 908.634 1064.52 894.289 1150.9C882.358 1222.65 901.186 1285.77 920.841 1352.65C936.496 1404.82 952.495 1458.7 952.082 1516.51Z" fill="url(#paint5_linear_142_2388)"/>
<path d="M950.151 1557.05C938.91 1509.75 914.221 1461.94 888.083 1411.66C845.532 1329.3 801.533 1244.03 816.567 1156.71C832.912 1061.87 903.324 975.492 971.461 891.594C1052.56 791.96 1136.49 688.991 1131.18 570.713C1128.01 498.96 1056.91 426.779 1009.87 379.057L993.323 361.953C967.806 335.27 936.496 308.501 903.669 280.022C833.877 220.156 754.706 152.508 715.258 70.9191C643.397 -77.3772 743.603 -171.024 840.429 -261.507C895.6 -312.821 952.634 -366.444 980.703 -430.329L986.772 -426.224C958.013 -360.714 900.359 -306.492 844.567 -254.666C745.81 -162.387 652.569 -75.0681 721.12 66.5574C759.878 146.521 838.36 213.742 907.324 273.009C940.634 301.574 972.082 328.513 997.806 355.367L1014.29 372.472C1062.56 421.134 1134.77 494.684 1138.42 570.286C1143.87 692.412 1058.84 796.75 976.634 897.666C909.255 980.281 839.601 1065.8 823.67 1158.17C809.188 1242.07 852.429 1325.79 894.221 1406.7C920.565 1458.01 945.531 1506.07 957.048 1554.48L950.151 1557.05Z" fill="url(#paint6_linear_142_2388)"/>
<path d="M951.392 1592.88C934.082 1539.86 896.221 1489.4 855.532 1436.03C797.464 1359.06 737.395 1279.7 742.499 1189.81C749.395 1070.94 837.67 977.031 923.048 886.206C1014.43 789.138 1108.84 688.735 1097.53 561.22C1084.98 419.338 974.702 338.348 868.083 260.01C774.429 191.592 677.603 120.18 645.052 7.4614C613.052 -103.718 633.328 -141.091 714.982 -205.661C739.051 -224.647 761.947 -240.383 783.946 -255.606C848.29 -299.821 903.876 -337.964 949.461 -431.697L955.323 -427.336C909.117 -331.636 852.773 -292.894 787.533 -247.738C765.464 -232.601 742.637 -216.95 718.568 -198.049C639.19 -135.361 620.707 -101.067 651.397 4.89575C683.12 114.707 778.912 185.006 871.462 252.911C979.53 332.276 1091.32 414.378 1104.22 560.793C1115.94 693.267 1020.08 795.125 927.462 893.647C843.118 982.847 755.878 1075.13 749.326 1190.41C744.43 1276.62 803.463 1354.7 860.497 1429.87C901.324 1483.84 939.875 1534.9 957.668 1589.37L951.392 1592.88Z" fill="url(#paint7_linear_142_2388)"/>
<path d="M946.496 1622.81C907.807 1524.12 869.945 1484.61 817.601 1429.88C800.981 1412.77 782.084 1392.84 761.464 1369.33C724.706 1327.5 676.224 1263.96 679.258 1195.8C684.844 1071.36 783.326 975.75 878.566 883.386C978.978 786.146 1083.25 684.717 1072.01 552.242C1059.46 405.314 942.979 321.331 830.291 240.085C731.602 169.015 629.604 95.466 595.811 -20.6737C576.156 -40.5149 565.329 -62.2377 563.674 -85.1577C561.881 -109.959 570.57 -136.471 590.087 -164.181L590.846 -164.95L669.603 -227.724C695.81 -244.828 720.361 -259.025 744.154 -272.281C811.05 -309.826 868.911 -342.153 917.876 -433.919L923.669 -429.215C873.531 -335.14 814.911 -302.556 746.981 -264.499C723.326 -251.243 698.706 -237.559 673.12 -220.369L594.984 -158.109C577.122 -132.452 568.915 -108.163 570.501 -85.9275C572.018 -65.1455 582.294 -45.1332 600.914 -26.5748L601.673 -25.8906V-24.6933C634.569 89.1373 735.809 162.174 833.739 232.73C947.944 315.002 1065.94 400.097 1078.84 551.301C1090.49 688.565 984.909 790.765 882.841 890.057C788.843 981.309 691.603 1075.73 686.155 1196.31C683.258 1260.8 730.43 1322.37 766.154 1363C786.843 1386.43 805.463 1405.76 822.015 1423.38C875.048 1478.71 913.393 1518.73 952.703 1619.05L946.496 1622.81Z" fill="url(#paint8_linear_142_2388)"/>
<path d="M933.599 1644.45C889.53 1541.06 845.6 1500.09 784.911 1443.56C764.911 1424.92 742.291 1403.88 717.808 1378.56C686.223 1345.98 620.431 1277.99 623.603 1200.25C628.844 1071.97 734.705 975.154 837.393 881.677C944.978 783.497 1056.29 681.896 1044.84 546.001C1032.08 395.481 910.909 309.274 793.669 225.89C690.912 152.853 584.638 77.2515 549.742 -42.0526C529.535 -61.8939 518.432 -83.6166 516.708 -106.537C514.915 -131.253 524.087 -157.85 543.88 -185.303L544.707 -186.244L626.775 -244.143C654.361 -260.306 680.568 -272.451 705.671 -284.167C774.635 -316.238 833.876 -344.033 885.323 -435.2L890.978 -430.325C838.289 -336.849 777.946 -308.712 708.154 -276.385C683.119 -264.754 657.258 -252.695 629.948 -236.788L548.639 -179.402C530.432 -153.745 522.018 -129.713 523.604 -107.563C525.122 -86.781 535.604 -66.7687 554.776 -48.2102L555.535 -47.5261L555.88 -46.3287C589.603 70.6662 695.119 145.669 797.256 218.193C915.944 302.689 1038.63 390.008 1051.8 544.889C1063.73 685.659 950.771 788.714 841.6 888.348C740.429 980.627 635.879 1076.5 630.844 1200.42C627.879 1273.88 691.809 1339.99 722.567 1371.47C746.912 1396.52 769.463 1417.56 789.394 1436.12C848.496 1491.2 895.185 1534.73 940.081 1639.92L933.599 1644.45Z" fill="url(#paint9_linear_142_2388)"/>
<path d="M910.565 1655.91C865.118 1548.92 815.188 1505.73 751.947 1450.66C729.534 1431.24 704.086 1409.18 676.845 1382.24C638.363 1344.52 574.019 1281.49 577.398 1202.13C583.053 1071.28 693.189 974.211 799.671 880.307C911.324 781.956 1026.77 680.184 1014.84 542.236C1001.67 389.664 877.738 302.26 757.809 217.763C652.5 143.53 543.674 66.8158 508.158 -54.5408C487.951 -74.4675 476.779 -96.1903 475.124 -119.196C473.262 -143.997 482.365 -170.509 502.158 -198.304L503.123 -199.245L587.191 -254.236C616.363 -269.716 643.397 -280.577 669.604 -291.182C739.258 -319.319 799.464 -343.607 851.739 -436.57L857.394 -431.696C803.808 -336.423 742.568 -311.964 671.741 -283.143C645.673 -272.623 618.777 -261.762 590.087 -246.625L506.847 -192.147C488.71 -166.49 480.296 -142.287 481.951 -120.051C483.537 -99.1835 494.02 -79.1713 513.192 -60.6129L514.019 -59.8431L514.364 -58.6458C548.847 60.3162 656.707 136.517 761.257 210.237C882.635 295.76 1008.15 384.361 1021.67 541.21C1034.08 684.204 916.91 787.43 803.67 887.234C698.5 979.941 589.88 1075.38 584.294 1202.56C581.122 1277.39 643.673 1338.79 680.845 1375.4C707.948 1401.99 732.154 1422.95 755.602 1443.3C819.601 1498.72 870.152 1542.42 916.427 1651.29L910.565 1655.91Z" fill="url(#paint10_linear_142_2388)"/>
<path d="M875.532 1657.28C830.084 1551.4 779.947 1507.02 716.499 1450.83C693.258 1430.22 669.259 1409.01 642.5 1382.41C601.742 1341.87 540.226 1280.55 543.261 1202.81C548.433 1071.79 658.707 974.466 765.326 880.306C876.98 781.784 992.427 679.927 980.772 541.893C967.806 388.893 843.394 302.43 722.982 218.104C617.604 144.726 508.365 67.7554 472.779 -53.2591C452.71 -73.1859 441.676 -94.9942 439.952 -118.085C438.09 -142.972 446.848 -169.399 466.503 -197.365L467.468 -198.306L551.95 -253.382C581.467 -268.862 608.846 -279.723 635.328 -290.242C705.327 -317.952 765.74 -341.556 817.67 -435.631L823.395 -430.756C770.085 -334.714 708.638 -310.255 637.19 -282.032C610.846 -271.598 583.674 -260.823 554.433 -245.6L470.779 -191.122C452.848 -165.465 444.641 -141.176 446.296 -118.855C447.883 -97.9019 458.296 -77.8041 477.331 -58.9891L478.158 -58.2195V-57.1076C512.64 61.9399 621.052 137.627 725.879 210.749C847.808 295.759 973.806 383.676 987.116 541.123C999.185 684.032 882.083 787.428 768.844 887.404C663.535 980.282 554.64 1076.41 549.674 1203.33C546.778 1276.7 606.708 1336.31 646.225 1375.82C672.776 1402.34 696.707 1423.55 719.879 1444.24C784.085 1501.03 834.774 1545.93 880.98 1653.6L875.532 1657.28Z" fill="url(#paint11_linear_142_2388)"/>
<path d="M830.911 1657.28C787.256 1554.65 740.153 1507.53 680.499 1447.66C659.81 1427.05 639.12 1405.84 615.534 1380.19C579.466 1340.59 518.984 1274.14 521.674 1200.59C526.294 1071.28 633.189 973.27 736.567 878.596C845.048 779.219 957.254 676.421 945.736 539.841C932.909 387.867 809.118 304.141 689.395 223.407C584.362 152.338 475.605 78.8742 440.089 -41.0285C420.02 -60.9553 408.917 -82.678 407.192 -105.769C405.33 -130.571 414.089 -157.083 433.744 -184.963L434.64 -185.904L519.26 -243.29C548.363 -259.453 575.604 -271.17 602.017 -282.544C672.637 -312.905 733.602 -339.16 785.463 -432.808L791.118 -427.933C738.015 -332.062 676.016 -305.379 604.293 -273.992C578.087 -262.703 550.984 -251.072 522.363 -235.25L438.571 -178.292C420.709 -152.635 412.434 -128.347 414.158 -106.111C415.882 -83.8753 426.158 -65.1459 445.192 -46.2454L445.951 -45.4756L446.295 -44.2784C480.778 73.2297 588.5 146.095 692.775 216.651C814.014 298.667 939.461 383.591 952.633 540.012C964.564 681.381 850.772 785.633 740.705 886.464C638.638 980.026 533.053 1076.75 528.639 1201.96C526.156 1271.83 584.983 1336.57 620.155 1375.23C643.396 1400.88 664.499 1421.84 684.913 1442.36C745.119 1502.91 792.773 1550.63 837.117 1654.63L830.911 1657.28Z" fill="url(#paint12_linear_142_2388)"/>
<path d="M777.809 1657.11C755.741 1599.64 708.155 1542.34 657.811 1481.62C582.64 1391.05 504.917 1297.32 509.193 1195.63C514.503 1069.4 615.398 970.879 712.983 875.521C816.429 774.69 922.911 670.267 910.566 536.168C896.773 386.589 774.43 307.822 656.087 231.622C552.019 164.657 444.435 95.384 408.504 -22.2951C388.505 -41.8798 377.47 -63.517 375.677 -86.4371C373.815 -111.239 382.574 -137.751 402.366 -165.888L403.194 -166.828L488.02 -227.977C516.779 -245.082 543.951 -258.252 570.157 -270.738C641.535 -304.947 703.19 -334.367 754.844 -429.383L760.499 -424.594C707.672 -327.354 645.121 -297.421 572.64 -262.699C546.502 -250.213 519.537 -237.042 491.262 -219.938L407.194 -159.217C389.125 -133.56 380.85 -109.015 382.574 -86.6936C384.16 -65.9116 394.573 -46.0704 413.539 -27.7686L414.297 -26.9989V-25.8871C448.78 89.3975 555.675 158.072 658.914 224.523C778.913 301.494 902.98 381.628 917.118 535.74C929.807 674.714 821.602 780.506 717.121 882.791C620.57 976.866 521.123 1074.28 515.951 1196.57C511.813 1294.41 588.433 1386.69 662.501 1475.98C713.327 1537.21 761.327 1595.11 783.878 1653.95L777.809 1657.11Z" fill="url(#paint13_linear_142_2388)"/>
<path d="M718.155 1656.77C700.707 1600.58 662.983 1541.83 622.432 1479.65C560.985 1384.81 497.468 1286.8 504.089 1189.39C512.296 1068.72 604.363 969.681 693.397 873.895C794.223 765.453 889.463 663.082 875.601 531.805C860.153 385.561 739.741 313.295 623.26 243.337C520.434 181.59 414.159 117.704 377.815 2.93307C357.953 -16.3095 346.919 -37.6046 345.126 -60.3537C343.126 -85.2408 352.022 -112.18 372.091 -140.403L372.849 -141.173L457.883 -207.367C486.434 -225.925 513.399 -240.464 539.537 -254.49C611.812 -293.403 674.156 -326.928 725.741 -424.338L731.534 -419.634C678.983 -320.086 615.674 -286.048 542.433 -246.707C516.434 -232.682 489.537 -218.228 461.469 -199.927L376.987 -134.074C358.643 -107.819 350.229 -83.1882 352.022 -60.8668C353.608 -40.3414 364.022 -20.8422 382.78 -2.79691L383.608 -2.11273L383.953 -1.00095C418.918 111.376 524.365 174.663 626.225 235.897C744.499 307.223 866.498 380.173 882.428 530.864C896.773 666.503 795.671 775.202 697.948 880.395C609.95 974.983 518.641 1072.91 510.986 1190.07C504.572 1284.15 567.191 1380.79 627.811 1474.35C668.431 1537.04 706.776 1596.3 724.362 1653.95L718.155 1656.77Z" fill="url(#paint14_linear_142_2388)"/>
<path d="M653.742 1656.34C641.535 1599.64 614.501 1539.61 585.881 1476.06C541.744 1378.05 496.227 1276.71 504.434 1181.95C514.365 1068.46 596.57 968.913 676.018 872.614C768.913 760.494 856.636 653.933 841.05 527.274C823.257 385.392 705.259 320.48 591.053 257.792C489.331 202.117 384.711 144.731 347.884 33.552C328.091 14.8225 317.126 -6.04501 315.264 -28.5374C313.195 -53.51 322.16 -80.7062 342.85 -109.442L343.54 -110.126L428.849 -181.965C457.055 -202.234 484.02 -218.483 509.951 -234.134C583.191 -278.435 646.432 -316.578 697.604 -417.323L703.397 -412.705C651.19 -310.078 587.122 -271.251 512.985 -226.437C487.124 -210.786 460.296 -194.622 432.504 -175.123L347.746 -103.712C328.988 -77.0288 320.161 -52.3983 322.298 -29.7348C323.954 -9.46591 334.298 9.69119 352.988 27.1378L353.746 27.822L354.091 28.9337C389.539 137.89 493.331 194.933 593.743 250.01C709.603 313.724 829.395 379.491 847.739 525.991C864.153 657.097 771.051 769.816 681.052 878.857C602.432 974.044 521.192 1072.48 511.468 1182.98C503.399 1275.08 548.502 1375.15 592.088 1471.96C620.915 1536.01 648.225 1596.56 660.638 1654.21L653.742 1656.34Z" fill="url(#paint15_linear_142_2388)"/>
<path d="M586.433 1655.82C580.226 1598.95 565.123 1538.66 549.192 1474.77C523.813 1373.17 497.538 1268.15 508.158 1173.82C519.882 1069.99 590.916 970.616 659.329 874.488C740.362 760.914 824.085 643.577 805.947 522.135C785.258 385.299 669.949 328.341 558.365 273.35C458.366 224.174 355.057 173.288 317.954 64.9311C277.748 -52.4059 320.713 -93.2858 400.16 -155.546C427.746 -177.269 454.642 -195.314 480.504 -212.761C554.778 -262.877 618.846 -306.152 669.742 -410.66L675.673 -406.213C623.812 -299.994 558.916 -256.035 483.814 -205.406C458.021 -188.301 431.401 -169.914 403.815 -148.362C318.989 -81.9112 288.024 -44.2813 324.299 61.5102C360.574 167.302 462.228 216.819 560.847 265.311C674.225 321.157 791.465 378.885 812.706 520.51C831.464 645.972 746.569 764.934 664.501 879.705C596.64 974.977 526.572 1073.41 514.986 1174.67C504.572 1267.12 530.572 1371.37 555.744 1471.95C571.813 1536.09 586.985 1596.73 593.261 1654.37L586.433 1655.82Z" fill="url(#paint16_linear_142_2388)"/>
<path d="M524.778 1655.23H517.881C517.881 1600.92 514.778 1544.99 511.467 1485.64C505.467 1377.71 499.26 1266.01 513.398 1165.35C526.226 1073.5 585.121 975.58 642.086 880.906C715.602 758.609 791.601 632.206 771.119 516.751C747.74 384.875 634.983 336.298 526.019 289.26C427.882 247.012 326.435 203.225 288.574 98.8017C247.54 -14.2592 293.401 -60.869 371.676 -127.662C399.262 -151.01 425.744 -170.937 451.468 -190.179C526.708 -246.453 591.742 -294.944 642.431 -403.473L648.362 -399.197C596.776 -288.787 531.122 -239.697 455.261 -182.91C429.606 -163.667 403.055 -143.826 375.814 -120.564C298.229 -54.4548 256.23 -11.7791 295.057 95.2953C331.677 196.383 431.744 239.486 528.433 281.221C639.259 329.029 753.878 378.375 778.084 514.955C799.256 634.173 722.223 762.201 647.81 886.037C591.328 980.112 532.915 1077.01 520.364 1166.81C506.571 1266.44 512.571 1377.62 518.571 1485.12C521.674 1544.48 524.778 1600.66 524.778 1655.23Z" fill="url(#paint17_linear_142_2388)"/>
<path d="M456.71 1655.83L449.813 1654.72C462.985 1528.66 482.02 1400.72 500.364 1276.96C506.295 1236.94 512.226 1197 517.95 1157.23C529.812 1074.62 576.087 983.365 625.052 886.725C690.982 756.645 759.188 622.203 736.292 511.622C710.085 384.878 599.949 344.255 493.537 305C396.986 269.508 297.678 232.819 259.057 132.501C214.92 18.0714 271.471 -34.0119 343.056 -99.9498C370.228 -125.008 396.711 -146.645 422.365 -167.598C498.571 -229.944 564.363 -283.823 614.914 -396.2L620.914 -392.095C569.674 -277.922 503.123 -223.53 426.228 -160.585C400.642 -139.632 374.228 -117.824 347.263 -93.1935C268.299 -20.4993 225.61 25.6829 265.333 128.652C302.643 225.549 400.711 261.725 495.537 296.704C603.88 336.643 716.223 377.951 743.051 509.399C766.636 623.486 697.672 759.638 630.983 891.172C582.363 987.128 536.433 1077.7 524.778 1158.69C519.054 1198.45 513.123 1238.48 507.192 1278.42C488.847 1401.91 469.882 1530.2 456.71 1655.83Z" fill="url(#paint18_linear_142_2388)"/>
<path d="M390.849 1656.26L383.953 1654.2C400.022 1572.87 424.849 1495.13 448.848 1419.87C476.434 1333.32 504.986 1243.87 519.882 1149.36C538.778 1029.63 576.433 931.709 616.432 827.714C622.363 812.234 628.363 796.584 634.432 780.591C639.742 766.565 645.949 751.513 652.501 735.52C681.742 664.793 718.086 576.705 701.534 506.576C672.776 384.621 565.123 351.438 460.986 319.367C366.505 290.29 268.851 260.271 229.334 163.802C184.232 53.8196 241.61 -2.71088 314.161 -74.2078C341.057 -100.72 367.47 -123.982 392.987 -146.56C470.09 -214.978 536.64 -273.561 587.122 -389.615L593.191 -385.596C541.951 -267.745 471.538 -205.485 396.987 -139.547C371.539 -117.055 345.195 -93.878 318.437 -67.4515C248.3 1.56525 192.921 56.1286 235.679 159.953C273.748 252.916 369.884 282.507 462.848 311.072C568.847 343.741 678.5 377.437 708.362 504.182C725.672 577.56 688.638 667.273 658.845 739.454C652.294 755.276 646.087 770.328 640.846 784.268C634.777 800.261 628.777 815.912 622.846 831.391C581.467 939.321 545.813 1032.63 527.123 1151.07C512.02 1246.26 483.331 1336.15 455.607 1423.04C431.538 1497.95 406.573 1575.44 390.849 1656.26Z" fill="url(#paint19_linear_142_2388)"/>
<path d="M328.849 1656.59L322.366 1653.86C344.504 1572.44 379.883 1498.55 414.089 1427.05C456.502 1338.62 500.295 1247.45 517.536 1142.69C540.156 1006.79 572.363 900.231 612.086 774.941C616.707 760.316 622.224 744.58 628.086 727.903C652.982 657.09 684.016 569.002 666.499 501.952C635.672 383.931 530.087 357.419 427.951 331.762C335.194 308.415 239.195 284.297 198.92 191.42C152.92 85.3716 212.23 23.5387 280.918 -48.0437L284.367 -51.5501C311.056 -79.345 337.331 -104.147 362.71 -128.093C440.571 -201.471 507.536 -264.929 558.225 -383.977L564.363 -380.043C513.26 -259.199 442.158 -191.893 366.848 -121.251C341.538 -97.3902 315.332 -72.6742 288.849 -45.0504L285.401 -41.4584C216.437 30.5516 161.61 87.4242 204.989 187.315C243.747 276.686 338.09 300.461 429.33 323.381C533.398 349.465 640.982 376.491 673.051 499.301C691.396 569.43 659.81 659.228 634.431 731.324C628.569 747.915 623.121 763.566 618.5 778.019C578.914 902.797 546.846 1008.93 524.294 1144.23C506.708 1250.1 462.571 1342.21 419.882 1431.24C385.882 1502.57 350.78 1576.03 328.849 1656.59Z" fill="url(#paint20_linear_142_2388)"/>
<path d="M272.574 1656.86L266.229 1653.69C293.125 1570.05 337.539 1497.53 380.434 1427.4C434.296 1339.4 490.019 1248.48 508.777 1137.31C529.168 1013.33 555.373 890.942 587.259 770.755C591.397 755.276 596.431 738.513 601.811 720.81C623.052 650.339 649.534 562.593 631.603 498.451C599.397 383.081 495.467 361.615 394.917 341.688C303.47 323.215 208.713 304.058 167.886 213.917C121.128 111.29 182.299 44.6679 247.057 -25.5461L253.953 -32.9866C280.367 -61.8077 306.573 -87.8066 331.883 -112.865C407.055 -187.44 478.088 -258.253 528.501 -379.097L534.639 -375.163C483.536 -252.267 411.951 -181.283 336.159 -106.194C310.918 -81.1358 284.781 -54.8804 258.505 -26.5724L251.609 -19.132C186.368 51.7663 130.024 113.001 174.024 209.812C213.333 296.361 306.229 315.176 396.089 333.307C498.64 354.089 604.638 375.555 638.155 495.8C656.913 562.935 629.948 652.221 608.362 723.974C602.983 741.592 597.949 758.183 593.88 773.663C562.054 893.533 535.918 1015.61 515.605 1139.27C496.226 1252.08 440.296 1343.84 385.883 1432.53C343.263 1502.23 299.125 1574.33 272.574 1656.86Z" fill="url(#paint21_linear_142_2388)"/>
<path d="M223.817 1656.94L217.472 1653.61C247.127 1566.29 298.367 1494.11 347.884 1424.32C411.745 1334.26 472.02 1249.17 491.399 1133.54L498.985 1088.04C516.916 979.688 533.881 877.403 558.777 767.763C562.57 751.086 567.329 733.04 572.57 714.054C591.811 641.018 613.949 558.232 596.57 495.288C565.191 380.602 461.744 363.668 361.401 347.248C270.781 332.452 176.99 317.144 135.749 229.227C88.5082 128.567 148.783 61.1747 212.575 -10.2367L221.886 -20.6704C248.161 -50.1757 274.299 -77.0298 299.54 -103.029C375.401 -180.598 446.503 -253.976 496.985 -376.273L503.123 -372.339C451.951 -248.674 380.09 -174.526 303.953 -96.358C278.712 -70.7012 252.644 -43.676 226.506 -14.2562L217.196 -3.82251C155.542 65.1087 97.2666 130.277 141.68 224.951C181.265 309.19 273.333 324.242 362.366 338.781C464.572 355.886 570.294 372.99 602.984 492.722C620.845 558.318 598.57 642.557 578.984 716.877C573.949 735.863 569.191 753.737 565.191 770.243C540.433 879.541 523.812 981.74 505.537 1089.93L497.951 1135.51C478.296 1253.1 414.504 1342.99 353.125 1429.88C303.884 1499.24 253.058 1570.91 223.817 1656.94Z" fill="url(#paint22_linear_142_2388)"/>
<path d="M184.161 1656.85L177.816 1653.69C207.678 1560.64 262.918 1488.2 316.435 1418.08C382.434 1331.44 444.847 1249.68 463.536 1132.6C466.939 1111.51 470.249 1090.55 473.467 1069.74C489.743 967.115 505.122 869.363 525.811 767.078C529.466 749.032 534.363 729.276 539.604 708.238C557.466 635.971 577.742 554.297 561.052 494.431C528.915 379.232 426.295 364.608 327.124 350.411C237.126 337.497 144.093 324.241 102.369 236.41C54.8525 136.177 116.921 65.6209 177.196 -2.71164L188.23 -15.1979C214.367 -45.1309 240.505 -72.4981 265.746 -98.9246C341.607 -178.29 412.916 -252.865 463.605 -375.077L469.743 -371.143C418.434 -247.734 346.435 -172.303 270.16 -92.4249C244.988 -65.9984 218.919 -38.7167 192.92 -8.95483L181.885 3.617C121.058 72.6338 63.68 137.802 108.231 231.62C148.231 315.775 239.264 328.86 327.814 341.431C429.192 355.97 533.949 370.937 567.466 491.267C584.914 553.87 564.362 637.254 546.156 710.804C540.983 731.671 536.156 751.341 532.363 769.13C511.674 871.244 496.363 968.483 480.088 1071.37C476.824 1092.18 473.513 1113.13 470.157 1134.23C451.054 1253.96 385.055 1340.25 321.263 1423.98C268.643 1493.51 213.471 1565.35 184.161 1656.85Z" fill="url(#paint23_linear_142_2388)"/>
<path d="M152.162 1647.71L145.748 1644.54C175.679 1550.47 231.609 1478.11 285.677 1408.24C351.814 1322.72 414.296 1241.99 433.261 1124.56C439.675 1084.62 445.882 1044.26 451.813 1005.26C463.743 927.434 476.019 846.957 491.053 767.079C494.502 748.521 499.329 728.252 504.364 706.786C520.915 636.486 539.604 556.95 523.329 498.281C491.881 384.793 391.4 367.346 294.229 350.413C206.23 335.104 114.921 319.283 73.9559 232.648C26.6462 133.185 85.8868 65.537 148.645 -6.13095L158.3 -17.762C183.609 -46.8397 208.85 -73.5228 233.264 -99.3506C307.815 -178.288 378.089 -252.778 429.054 -373.536L435.123 -369.517C383.951 -247.048 312.987 -171.703 237.954 -92.5088C213.609 -66.852 188.437 -40.0834 163.196 -11.0913L153.334 0.197693C92.6453 69.3855 35.4047 134.725 79.9558 228.287C119.472 311.329 208.851 326.894 295.194 341.946C394.434 359.051 496.984 377.096 529.674 495.459C546.639 556.693 527.605 637.683 510.777 709.266C505.743 730.732 500.984 750.915 497.536 769.131C482.571 848.839 469.95 929.145 458.364 1006.88C452.433 1045.97 446.295 1086.34 439.813 1126.62C420.434 1246.35 354.366 1331.87 290.436 1414.49C237.057 1483.42 181.61 1555.08 152.162 1647.71Z" fill="url(#paint24_linear_142_2388)"/>
<path d="M124.508 1622.47L118.163 1619.31C148.3 1525.23 205.127 1454.25 260.023 1385.49C327.194 1301.42 390.642 1221.97 409.262 1104.55C415.262 1066.32 425.814 1016.8 436.848 964.374C470.227 807.526 511.743 612.277 483.192 506.229C453.261 395.05 357.056 372.728 263.954 351.177C179.748 331.678 92.646 311.494 53.1293 225.886C7.06099 125.996 65.4739 58.6039 127.266 -12.8075L134.576 -21.3598C158.783 -49.4112 182.852 -75.1535 205.955 -99.9551C277.885 -176.925 345.815 -249.62 394.986 -367.897L401.124 -363.963C351.332 -244.232 282.919 -171.024 210.506 -93.4554C187.334 -68.7393 163.404 -43.0826 139.335 -15.1167L131.956 -6.56442C69.8876 65.3601 15.7505 127.535 59.1292 221.61C97.0597 303.712 182.576 323.553 265.264 342.71C360.228 364.689 458.365 387.438 489.744 503.407C518.916 611.935 477.123 808.552 443.537 966.512C432.365 1018.77 421.883 1068.11 415.952 1106.08C396.986 1225.82 329.815 1310.14 264.85 1391.47C210.506 1459.72 154.162 1530.19 124.508 1622.47Z" fill="url(#paint25_linear_142_2388)"/>
<path d="M100.439 1584.16L94.0944 1580.82C125.749 1488.8 182.507 1418.33 237.334 1349.91C309.264 1260.71 377.194 1176.38 392.09 1048.27C396.642 1009.44 405.883 958.729 415.538 905.106C439.607 772.119 469.606 606.632 448.71 511.702C425.4 405.911 329.608 372.899 236.989 340.657C167.473 316.625 95.6116 291.823 55.7501 236.063C-11.1455 142.501 32.647 74.5961 101.749 -11.2686C130.025 -46.3329 158.3 -77.2921 185.679 -107.311C252.023 -179.834 314.712 -248.423 361.125 -359.944L367.263 -356.01C320.229 -243.035 256.92 -174.018 190.231 -100.896C162.99 -70.9634 135.059 -40.0898 106.577 -5.1965C38.0951 80.3261 -2.11114 142.244 60.9224 230.418C99.4047 284.297 170.3 308.757 238.851 332.447C333.332 365.031 431.055 398.727 455.331 509.222C476.71 606.205 446.503 772.803 422.228 906.731C412.573 960.183 403.4 1010.73 398.918 1049.3C383.676 1180.15 311.815 1269.43 242.23 1355.72C187.817 1423.8 131.542 1493.67 100.439 1584.16Z" fill="url(#paint26_linear_142_2388)"/>
<path d="M79.0602 1535.84L72.7154 1532.42C104.37 1443.82 162.369 1375.83 218.644 1310.06C293.678 1222.23 364.504 1139.01 376.573 1012.35C379.263 983.363 383.47 948.127 388.297 910.839C404.159 782.556 424.021 622.2 404.228 526.586C382.711 422.334 295.609 382.395 211.127 343.739C147.335 314.405 81.405 283.873 44.1641 226.06C-17.904 129.334 24.9231 61.2577 87.198 -17.6797C113.611 -51.2045 139.887 -80.3677 165.335 -108.676C226.782 -177.094 284.781 -241.663 327.057 -348.823L333.263 -345.06C290.574 -236.532 232.092 -171.706 170.162 -102.433C144.783 -74.2101 118.646 -45.047 92.3704 -11.7787C32.5092 64.0799 -8.66265 129.419 49.8193 220.672C85.8187 276.946 150.852 306.708 213.748 335.614C299.678 375.04 388.504 415.749 410.918 524.363C430.986 621.687 410.918 782.641 395.056 912.037C390.504 949.239 386.159 984.474 383.401 1013.3C371.056 1143.29 296.23 1230.86 223.403 1316.39C167.749 1381.47 110.025 1448.86 79.0602 1535.84Z" fill="url(#paint27_linear_142_2388)"/>
<path d="M59.474 1480.59L53.3362 1476.91C87.0599 1390.62 145.404 1326.05 201.886 1263.62C272.988 1185.02 339.815 1110.7 360.504 997.644C378.504 898.01 377.538 647.001 352.78 545.571C328.022 444.141 253.333 398.985 180.99 355.283C116.439 316.2 49.9569 275.833 17.1987 196.04C-15.5594 116.248 24.9918 44.3232 63.4051 -10.4112C92.4037 -50.9372 123.479 -89.1024 156.438 -124.669C208.989 -183.423 254.368 -234.224 293.54 -336.937L299.746 -333.345C260.023 -229.007 214.161 -177.693 161.059 -118.255C128.307 -82.9755 97.4379 -45.0948 68.6463 -4.85223C31.6813 47.9152 -7.21464 118.044 23.4056 191.85C54.9224 268.82 120.577 308.845 184.093 347.33C257.747 391.887 333.953 437.984 359.47 542.835C384.435 645.462 385.4 898.694 367.332 999.269C346.642 1115.07 278.505 1190.16 206.506 1269.78C150.507 1331.95 92.646 1395.92 59.474 1480.59Z" fill="url(#paint28_linear_142_2388)"/>
<path d="M41.0596 1421.49L34.9217 1417.47C80.4383 1311.94 121.886 1260.8 197.54 1186.05L219.471 1164.58C292.297 1093.6 340.366 1046.73 350.159 930.423C358.09 836.348 332.435 657.862 311.745 561.051C289.884 459.193 226.712 408.051 160.023 353.83C110.369 313.548 59.0593 271.984 27.1287 207.842C-26.1809 100.939 26.0943 28.8435 81.4728 -47.4426L85.6107 -53.1726C106.3 -81.7372 124.92 -104.486 142.92 -126.979C189.057 -184.022 225.678 -229.093 260.16 -323.681L266.436 -320.174C231.402 -223.705 194.575 -178.121 147.886 -120.479C129.955 -98.3286 111.403 -75.4085 90.9209 -47.1005L86.7141 -41.285C30.7838 35.6854 -17.4913 102.308 33.1287 203.823C64.2317 266.254 114.921 307.391 164.161 347.073C229.195 399.755 296.435 454.319 318.918 559.34C339.607 656.751 365.607 836.69 357.607 931.706C347.469 1051.44 298.435 1099.42 224.229 1171.68L202.368 1193.15C126.92 1266.7 85.9555 1317.33 41.0596 1421.49Z" fill="url(#paint29_linear_142_2388)"/>
<path d="M22.7845 1361.46L16.7845 1357.27C63.9563 1253.28 104.576 1205.9 183.61 1132.52C192.506 1123.97 201.472 1116.18 210.23 1108.31C277.539 1047.51 335.676 995.083 337.883 887.667C339.125 828.998 314.918 750.83 293.608 681.3C282.16 644.184 271.402 609.205 264.919 579.272C243.678 481.349 191.196 422.68 135.541 360.676C92.7834 312.955 48.5772 263.608 20.7156 195.019C-29.9734 70.4123 49.4048 -38.2014 126.093 -143.223C168.231 -200.865 208.023 -255.343 226.092 -311.019L232.506 -307.854C213.954 -250.725 173.817 -195.734 131.197 -137.493C56.0254 -34.866 -21.6976 71.8662 26.8534 191.17C54.0944 258.306 97.8868 307.139 140.162 354.262C194.092 414.128 249.816 476.645 271.195 577.048C277.608 606.554 288.298 641.361 299.677 678.222C321.263 748.179 345.676 827.544 344.435 887.923C342.159 999.103 282.712 1053.15 213.954 1115.24C205.196 1123.11 196.299 1131.06 187.403 1139.36C109.542 1211.97 69.4045 1258.83 22.7845 1361.46Z" fill="url(#paint30_linear_142_2388)"/>
<path d="M3.95762 1303.73L-1.9043 1299.2C53.6811 1188.02 102.094 1141.84 182.921 1070C189.817 1063.75 197.61 1057.17 205.817 1050.24C258.368 1005.77 330.298 944.962 330.987 864.144C331.401 813.6 299.884 756.385 269.402 701.052C247.885 661.968 227.541 625.108 218.506 591.326C197.817 513.843 156.438 446.622 116.715 381.71C73.8187 311.838 29.4746 239.572 11.6817 155.246C-13.4214 35.5147 42.6468 -45.7318 102.094 -132.11C137.266 -183.423 173.679 -236.362 192.369 -298.451L198.851 -295.458C179.748 -232 142.921 -178.377 107.335 -126.551C49.1294 -41.8833 -5.83526 38.0804 18.3713 153.108C35.8193 235.723 77.7497 304.141 122.232 376.493C162.438 442.004 203.955 509.823 225.058 588.59C233.816 621.259 253.816 657.692 275.057 696.177C306.16 752.622 338.298 811.034 337.884 864.229C337.125 949.752 263.471 1011.84 209.748 1057.25C201.541 1064.18 193.817 1070.77 186.921 1076.92C106.853 1148.08 58.8534 1193.75 3.95762 1303.73Z" fill="url(#paint31_linear_142_2388)"/>
<path d="M-16.1114 1250.62L-22.3872 1247.12C-2.79428 1192.56 25.5394 1143.5 60.8924 1102.94C96.2454 1062.38 137.879 1031.15 183.265 1011.16C266.781 974.557 310.849 903.916 314.298 801.032C305.746 759.212 277.608 734.923 247.816 709.095C218.023 683.267 188.437 657.782 173.265 613.053V611.685C168.88 522.986 141.908 438.301 96.2318 369.827C47.6168 294.13 12.161 206.776 -7.90472 113.259C-16.2494 12.77 31.8878 -60.6939 78.4389 -131.763C110.025 -179.741 142.507 -229.259 158.3 -287.072L165.196 -284.25C148.645 -224.983 115.887 -174.952 84.163 -126.546C36.3705 -53.5955 -8.80127 15.2502 -0.801382 111.549C19.0435 203.721 54.0267 289.816 101.956 364.439C148.235 434.172 175.559 520.259 180.024 610.402C194.506 652.479 223.678 677.708 251.885 702.082C282.919 728.936 312.229 754.251 321.263 799.578V800.177V800.776C317.746 907.85 272.091 981.314 185.541 1019.2C141.048 1038.84 100.233 1069.48 65.5711 1109.26C30.9087 1149.04 3.11995 1197.13 -16.1114 1250.62Z" fill="url(#paint32_linear_142_2388)"/>
<path d="M-38.594 1206.49L-44.8008 1202.81C-2.04277 1091.03 68.37 1013.64 164.438 972.671C248.988 939.146 293.677 870.043 297.332 767.416C285.332 725.51 254.85 714.906 222.575 703.617C188.782 691.814 150.507 678.387 129.886 626.646L129.473 624.936C127.271 535.163 105.849 447.734 67.4045 371.618C26.4191 288.336 -2.45573 196.776 -17.9047 101.11C-23.5597 5.15314 14.5777 -58.6468 54.9909 -126.21C82.2319 -171.793 110.162 -219.002 124.645 -277.328L131.541 -274.848C116.99 -214.982 88.4387 -167.346 60.7839 -120.907C21.1983 -54.7127 -16.2495 7.88983 -10.8013 100.083C4.47012 194.475 32.9203 284.834 73.2665 367.085C112.273 444.157 134.051 532.705 136.369 623.653C155.748 671.631 190.644 683.519 224.437 695.577C258.229 707.636 291.056 718.925 304.091 765.62V766.39V767.245C300.505 874.063 254.229 945.902 166.507 981.052C72.4389 1020.91 3.40539 1096.85 -38.594 1206.49Z" fill="url(#paint33_linear_142_2388)"/>
<path d="M-64.2481 1173.74L-70.3169 1169.81C-20.8693 1052.81 56.5778 972.59 159.749 931.539C250.713 896.218 286.368 828.912 268.782 726.285C232.742 702.643 190.882 696.543 151.404 709.18H150.852H150.301C126.922 707.128 110.163 698.404 100.439 683.096C90.7152 667.787 88.4394 648.459 91.8187 623.23C86.3959 556.577 73.6817 491.151 54.0261 428.752C19.2157 331.897 -8.99737 231.599 -30.3176 128.909C-42.4553 17.7298 -7.62823 -48.8923 29.2678 -119.62C52.4399 -164.006 76.4395 -210.017 90.5773 -269.883L97.4737 -267.488C82.9912 -206.425 58.7846 -159.901 35.4056 -114.916C-0.800743 -45.5569 -34.9382 19.9534 -23.2142 127.284C-1.99608 229.392 26.0787 329.118 60.7157 425.416C80.6996 488.798 93.623 555.262 99.1289 622.973V623.658C95.9565 647.005 98.3703 665.136 106.025 677.622C113.68 690.109 129.335 698.49 150.439 700.457C191.991 687.547 235.939 694.508 273.54 719.956L274.92 720.897V722.778C293.954 830.024 255.747 902.974 161.542 939.664C60.4398 980.03 -15.6281 1058.8 -64.2481 1173.74Z" fill="url(#paint34_linear_142_2388)"/>
<path d="M-93.7652 1155.35L-99.834 1151.41C-50.1106 1034.08 27.8883 954.712 132.094 916.056C223.679 881.847 259.816 814.797 242.437 711.571C201.959 691.486 156.882 690.937 116.094 710.032H115.059C90.0943 711.058 72.3014 704.216 62.0257 689.592C51.75 674.967 49.4052 655.383 52.9913 629.042C46.9099 561.826 35.5222 495.513 18.9919 431.057C-10.4875 330.224 -34.7434 227.159 -53.6278 122.491C-63.8345 14.2195 -32.4557 -50.8632 0.716217 -119.709C21.4056 -163.069 43.1294 -207.797 56.4396 -266.466L63.336 -264.157C49.5431 -204.291 27.8882 -159.135 6.85405 -115.347C-25.7662 -47.7845 -56.5244 16.101 -46.5935 121.123C-27.7503 225.31 -3.61037 327.914 25.6814 428.32C42.424 493.557 53.9733 560.67 60.1637 628.7V629.897C56.7845 654.1 59.2672 672.658 67.4739 683.947C75.6807 695.236 92.0943 702.335 114.577 701.052C157.407 681.184 204.716 682.162 246.989 703.788L248.713 704.644L249.126 706.867C268.023 814.968 229.472 887.833 134.37 923.496C31.6813 962.409 -44.9383 1040.15 -93.7652 1155.35Z" fill="url(#paint35_linear_142_2388)"/>
<path d="M-126.661 1153.38L-132.73 1149.45C-83.2824 1032.63 -5.69736 953.86 97.8184 915.375C188.438 881.166 224.851 813.774 208.92 710.634C167.593 690.918 121.836 690.918 80.5083 710.634H79.4739C54.4398 711.917 36.509 705.246 26.0264 690.707C15.5438 676.168 12.923 656.498 16.2334 630.071C8.94383 563.023 -2.23434 496.714 -17.2144 431.659C-43.0071 330.4 -65.4896 226.405 -83.4204 122.495C-93.1444 14.8216 -62.731 -52.5703 -30.7315 -123.982C-11.5593 -166.743 8.23346 -210.36 21.4057 -265.949L28.3021 -263.469C14.5092 -207.024 -5.07669 -162.723 -24.3868 -119.791C-55.9725 -49.6625 -85.7651 16.532 -76.386 121.126C-58.3173 224.266 -36.1107 328.091 -10.3179 429.008C4.78741 494.71 16.0578 561.677 23.4057 629.387V630.584C20.3023 654.873 22.992 673.346 31.4056 684.806C39.8193 696.266 56.3018 703.022 78.9222 701.91C122.336 681.449 170.37 681.999 213.472 703.45L215.196 704.305L215.61 706.529C232.989 814.629 194.162 887.58 100.094 923.414C-1.9043 961.386 -78.1101 1038.78 -126.661 1153.38Z" fill="url(#paint36_linear_142_2388)"/>
<path d="M-153.971 1160.74L-160.109 1156.81C-137.966 1101.79 -106.956 1053 -68.9968 1013.44C-31.0375 973.884 13.0634 944.408 60.5774 926.835C147.266 891.343 182.231 825.234 167.472 724.66C128.352 701.153 83.7642 695.666 41.681 709.18H41.1983H41.0604C16.8538 708.154 -0.318344 699.858 -11.0079 684.635C-21.6974 669.412 -24.2491 650.426 -21.4905 624C-29.8352 558.66 -40.1798 492.722 -52.1107 428.153C-73.3517 329.118 -92.1101 227.773 -107.834 127.113C-116.317 21.8349 -89.0757 -52.4843 -60.3175 -132.106C-43.1558 -176.571 -28.8362 -222.638 -17.4905 -269.883L-10.5941 -267.574C-21.9773 -219.897 -36.4138 -173.425 -53.7658 -128.599C-82.1792 -50.5172 -108.937 23.2888 -100.731 125.83C-85.0757 225.977 -66.2484 327.151 -45.1453 426.1C-33.0765 491.183 -22.7318 557.549 -14.3181 623.316V624.513C-16.8698 648.288 -13.9043 666.675 -5.49068 679.076C2.923 691.477 19.1986 699.602 41.0604 700.628C84.9836 686.742 131.464 692.81 172.093 717.732L173.679 718.673V720.811C189.817 826.004 152.438 898.014 62.5084 934.618C15.8619 951.917 -27.422 980.914 -64.6601 1019.81C-101.898 1058.71 -132.297 1106.67 -153.971 1160.74Z" fill="url(#paint37_linear_142_2388)"/>
<path d="M-175.005 1174.5L-181.212 1170.83C-161.81 1118.11 -133.711 1071.02 -98.7285 1032.6C-63.7456 994.187 -22.6559 965.291 21.8886 947.783C103.198 910.495 135.335 845.156 120.163 748.002C84.3332 718.53 41.4655 705.104 -1.35237 709.944H-2.24895C-47.0069 700.366 -67.2136 668.894 -62.3171 616.639C-104.11 510.506 -116.316 305.765 -124.385 170.126C-125.075 157.725 -125.833 145.923 -126.523 134.89C-132.868 32.2632 -112.04 -53.2595 -90.0408 -143.913C-79.7651 -186.247 -69.3514 -229.949 -61.2826 -276.046L-54.3861 -274.335C-62.317 -227.897 -72.9376 -183.938 -83.2823 -141.433C-105.144 -51.4635 -125.764 33.4604 -119.489 134.206C-118.799 145.239 -118.109 157.041 -117.351 169.527C-109.213 304.995 -97.0062 509.65 -55.2827 614.245L-54.8689 615.356V616.639C-59.6964 664.874 -42.0415 692.669 -1.00763 702.162C43.6906 697.24 88.3947 711.522 125.611 742.614L126.853 743.555V745.265C143.266 846.781 108.784 917.85 24.4403 956.677C-19.2335 973.684 -59.5473 1001.86 -93.9003 1039.38C-128.253 1076.89 -155.882 1122.93 -175.005 1174.5Z" fill="url(#paint38_linear_142_2388)"/>
<path d="M-191.006 1193.32L-197.42 1190.07C-181.831 1140.32 -157.653 1095.4 -126.583 1058.47C-95.5123 1021.53 -58.3013 993.476 -17.5604 976.264C56.8523 936.24 85.1278 871.499 68.5763 778.536C36.3875 741.678 -4.29396 718.233 -47.7669 711.486H-48.4565C-90.318 692.842 -109.214 657.265 -104.663 605.78C-135.007 510.594 -136.662 361.955 -138.041 242.395C-138.455 207.33 -138.8 173.977 -139.834 144.899C-143.697 36.7982 -131.628 -70.6182 -119.973 -174.443C-115.904 -210.619 -111.697 -247.992 -108.18 -285.023L-101.283 -283.997C-104.801 -246.966 -109.007 -209.507 -113.076 -172.818C-124.455 -69.934 -136.8 37.1403 -132.938 144.728C-131.904 174.062 -131.559 207.245 -131.145 242.48C-129.766 361.699 -128.111 510.08 -97.9731 603.813V604.84V605.866C-102.456 654.015 -85.6974 685.915 -46.6635 703.447C-1.56398 710.508 40.5936 735.016 73.8176 773.49L74.6451 774.431V775.714C92.3 872.611 61.9557 942.911 -15.4225 984.56C-55.1829 1001.4 -91.4968 1028.81 -121.825 1064.87C-152.154 1100.93 -175.764 1144.77 -191.006 1193.32Z" fill="url(#paint39_linear_142_2388)"/>
<path d="M-203.281 1215.73L-210.177 1213.33C-200.838 1169.51 -183.175 1129.09 -158.663 1095.47C-134.151 1061.84 -103.503 1035.98 -69.2825 1020.05C-6.38689 983.19 23.7506 921.186 20.3714 836.091C10.9922 781.271 -23.3522 754.588 -59.6965 726.28C-97.558 696.86 -136.73 666.414 -150.73 601.161C-171.005 507.086 -163.626 388.893 -156.454 274.635C-153.005 220.328 -149.557 169.015 -149.557 122.833C-149.557 57.4933 -151.488 -8.70126 -153.35 -72.6722C-155.488 -145.709 -157.695 -221.225 -157.005 -295.801H-150.109C-150.799 -221.396 -148.592 -145.965 -146.454 -73.4419C-144.592 -9.29996 -142.661 56.8946 -142.661 122.405C-142.661 168.929 -145.971 220.414 -149.557 274.892C-156.454 388.38 -164.04 505.803 -144.109 598.509C-130.799 660.428 -92.7305 690.019 -56.0414 718.241C-19.3522 746.464 17.199 775.199 27.1989 834.21C31.0609 923.838 -0.386948 988.151 -66.2481 1027.15C-99.5976 1042.68 -129.452 1067.91 -153.299 1100.73C-177.145 1133.54 -194.287 1172.98 -203.281 1215.73Z" fill="url(#paint40_linear_142_2388)"/>
<defs>
<linearGradient id="paint0_linear_142_2388" x1="1107.85" y1="-416.126" x2="1107.85" y2="1338.63" gradientUnits="userSpaceOnUse">
<stop stop-color="#2E4737"/>
<stop offset="1" stop-color="#218B46"/>
</linearGradient>
<linearGradient id="paint1_linear_142_2388" x1="1088.89" y1="-418.27" x2="1088.89" y2="1364.36" gradientUnits="userSpaceOnUse">
<stop stop-color="#2E4737"/>
<stop offset="1" stop-color="#218B46"/>
</linearGradient>
<linearGradient id="paint2_linear_142_2388" x1="1060.54" y1="-419.725" x2="1060.54" y2="1397.37" gradientUnits="userSpaceOnUse">
<stop stop-color="#2E4737"/>
<stop offset="1" stop-color="#218B46"/>
</linearGradient>
<linearGradient id="paint3_linear_142_2388" x1="1021.3" y1="-422.633" x2="1021.3" y2="1435" gradientUnits="userSpaceOnUse">
<stop stop-color="#2E4737"/>
<stop offset="1" stop-color="#218B46"/>
</linearGradient>
<linearGradient id="paint4_linear_142_2388" x1="990.185" y1="-425.285" x2="990.185" y2="1475.45" gradientUnits="userSpaceOnUse">
<stop stop-color="#2E4737"/>
<stop offset="1" stop-color="#218B46"/>
</linearGradient>
<linearGradient id="paint5_linear_142_2388" x1="952.192" y1="-427.42" x2="952.192" y2="1516.51" gradientUnits="userSpaceOnUse">
<stop stop-color="#2E4737"/>
<stop offset="1" stop-color="#218B46"/>
</linearGradient>
<linearGradient id="paint6_linear_142_2388" x1="914.748" y1="-430.329" x2="914.748" y2="1557.05" gradientUnits="userSpaceOnUse">
<stop stop-color="#2E4737"/>
<stop offset="1" stop-color="#218B46"/>
</linearGradient>
<linearGradient id="paint7_linear_142_2388" x1="867.903" y1="-431.697" x2="867.903" y2="1592.88" gradientUnits="userSpaceOnUse">
<stop stop-color="#2E4737"/>
<stop offset="1" stop-color="#218B46"/>
</linearGradient>
<linearGradient id="paint8_linear_142_2388" x1="821.584" y1="-433.919" x2="821.584" y2="1622.81" gradientUnits="userSpaceOnUse">
<stop stop-color="#2E4737"/>
<stop offset="1" stop-color="#218B46"/>
</linearGradient>
<linearGradient id="paint9_linear_142_2388" x1="784.58" y1="-435.2" x2="784.58" y2="1644.45" gradientUnits="userSpaceOnUse">
<stop stop-color="#2E4737"/>
<stop offset="1" stop-color="#218B46"/>
</linearGradient>
<linearGradient id="paint10_linear_142_2388" x1="748.73" y1="-436.57" x2="748.73" y2="1655.91" gradientUnits="userSpaceOnUse">
<stop stop-color="#2E4737"/>
<stop offset="1" stop-color="#218B46"/>
</linearGradient>
<linearGradient id="paint11_linear_142_2388" x1="713.842" y1="-435.631" x2="713.842" y2="1657.28" gradientUnits="userSpaceOnUse">
<stop stop-color="#2E4737"/>
<stop offset="1" stop-color="#218B46"/>
</linearGradient>
<linearGradient id="paint12_linear_142_2388" x1="680.222" y1="-432.808" x2="680.222" y2="1657.28" gradientUnits="userSpaceOnUse">
<stop stop-color="#2E4737"/>
<stop offset="1" stop-color="#218B46"/>
</linearGradient>
<linearGradient id="paint13_linear_142_2388" x1="646.784" y1="-429.383" x2="646.784" y2="1657.11" gradientUnits="userSpaceOnUse">
<stop stop-color="#2E4737"/>
<stop offset="1" stop-color="#218B46"/>
</linearGradient>
<linearGradient id="paint14_linear_142_2388" x1="614.323" y1="-424.338" x2="614.323" y2="1656.77" gradientUnits="userSpaceOnUse">
<stop stop-color="#2E4737"/>
<stop offset="1" stop-color="#218B46"/>
</linearGradient>
<linearGradient id="paint15_linear_142_2388" x1="582.304" y1="-417.323" x2="582.304" y2="1656.34" gradientUnits="userSpaceOnUse">
<stop stop-color="#2E4737"/>
<stop offset="1" stop-color="#218B46"/>
</linearGradient>
<linearGradient id="paint16_linear_142_2388" x1="558.988" y1="-410.66" x2="558.988" y2="1655.82" gradientUnits="userSpaceOnUse">
<stop stop-color="#2E4737"/>
<stop offset="1" stop-color="#218B46"/>
</linearGradient>
<linearGradient id="paint17_linear_142_2388" x1="527.438" y1="-403.473" x2="527.438" y2="1655.23" gradientUnits="userSpaceOnUse">
<stop stop-color="#2E4737"/>
<stop offset="1" stop-color="#218B46"/>
</linearGradient>
<linearGradient id="paint18_linear_142_2388" x1="495.633" y1="-396.2" x2="495.633" y2="1655.83" gradientUnits="userSpaceOnUse">
<stop stop-color="#2E4737"/>
<stop offset="1" stop-color="#218B46"/>
</linearGradient>
<linearGradient id="paint19_linear_142_2388" x1="463.071" y1="-389.615" x2="463.071" y2="1656.26" gradientUnits="userSpaceOnUse">
<stop stop-color="#2E4737"/>
<stop offset="1" stop-color="#218B46"/>
</linearGradient>
<linearGradient id="paint20_linear_142_2388" x1="430.593" y1="-383.977" x2="430.593" y2="1656.59" gradientUnits="userSpaceOnUse">
<stop stop-color="#2E4737"/>
<stop offset="1" stop-color="#218B46"/>
</linearGradient>
<linearGradient id="paint21_linear_142_2388" x1="397.944" y1="-379.097" x2="397.944" y2="1656.85" gradientUnits="userSpaceOnUse">
<stop stop-color="#2E4737"/>
<stop offset="1" stop-color="#218B46"/>
</linearGradient>
<linearGradient id="paint22_linear_142_2388" x1="364.191" y1="-376.273" x2="364.191" y2="1656.94" gradientUnits="userSpaceOnUse">
<stop stop-color="#2E4737"/>
<stop offset="1" stop-color="#218B46"/>
</linearGradient>
<linearGradient id="paint23_linear_142_2388" x1="329.81" y1="-375.077" x2="329.81" y2="1656.85" gradientUnits="userSpaceOnUse">
<stop stop-color="#2E4737"/>
<stop offset="1" stop-color="#218B46"/>
</linearGradient>
<linearGradient id="paint24_linear_142_2388" x1="296.569" y1="-373.536" x2="296.569" y2="1647.71" gradientUnits="userSpaceOnUse">
<stop stop-color="#2E4737"/>
<stop offset="1" stop-color="#218B46"/>
</linearGradient>
<linearGradient id="paint25_linear_142_2388" x1="268.085" y1="-367.897" x2="268.085" y2="1622.47" gradientUnits="userSpaceOnUse">
<stop stop-color="#2E4737"/>
<stop offset="1" stop-color="#218B46"/>
</linearGradient>
<linearGradient id="paint26_linear_142_2388" x1="242.566" y1="-359.944" x2="242.566" y2="1584.16" gradientUnits="userSpaceOnUse">
<stop stop-color="#2E4737"/>
<stop offset="1" stop-color="#218B46"/>
</linearGradient>
<linearGradient id="paint27_linear_142_2388" x1="216.605" y1="-348.823" x2="216.605" y2="1535.84" gradientUnits="userSpaceOnUse">
<stop stop-color="#2E4737"/>
<stop offset="1" stop-color="#218B46"/>
</linearGradient>
<linearGradient id="paint28_linear_142_2388" x1="192.448" y1="-336.937" x2="192.448" y2="1480.59" gradientUnits="userSpaceOnUse">
<stop stop-color="#2E4737"/>
<stop offset="1" stop-color="#218B46"/>
</linearGradient>
<linearGradient id="paint29_linear_142_2388" x1="181.987" y1="-323.681" x2="181.987" y2="1421.49" gradientUnits="userSpaceOnUse">
<stop stop-color="#2E4737"/>
<stop offset="1" stop-color="#218B46"/>
</linearGradient>
<linearGradient id="paint30_linear_142_2388" x1="174.607" y1="-311.019" x2="174.607" y2="1361.46" gradientUnits="userSpaceOnUse">
<stop stop-color="#2E4737"/>
<stop offset="1" stop-color="#218B46"/>
</linearGradient>
<linearGradient id="paint31_linear_142_2388" x1="167.992" y1="-298.451" x2="167.992" y2="1303.73" gradientUnits="userSpaceOnUse">
<stop stop-color="#2E4737"/>
<stop offset="1" stop-color="#218B46"/>
</linearGradient>
<linearGradient id="paint32_linear_142_2388" x1="149.438" y1="-287.072" x2="149.438" y2="1250.62" gradientUnits="userSpaceOnUse">
<stop stop-color="#2E4737"/>
<stop offset="1" stop-color="#218B46"/>
</linearGradient>
<linearGradient id="paint33_linear_142_2388" x1="129.645" y1="-277.328" x2="129.645" y2="1206.49" gradientUnits="userSpaceOnUse">
<stop stop-color="#2E4737"/>
<stop offset="1" stop-color="#218B46"/>
</linearGradient>
<linearGradient id="paint34_linear_142_2388" x1="104.678" y1="-269.883" x2="104.678" y2="1173.74" gradientUnits="userSpaceOnUse">
<stop stop-color="#2E4737"/>
<stop offset="1" stop-color="#218B46"/>
</linearGradient>
<linearGradient id="paint35_linear_142_2388" x1="76.9791" y1="-266.466" x2="76.9791" y2="1155.35" gradientUnits="userSpaceOnUse">
<stop stop-color="#2E4737"/>
<stop offset="1" stop-color="#218B46"/>
</linearGradient>
<linearGradient id="paint36_linear_142_2388" x1="43.4568" y1="-265.949" x2="43.4568" y2="1153.38" gradientUnits="userSpaceOnUse">
<stop stop-color="#2E4737"/>
<stop offset="1" stop-color="#218B46"/>
</linearGradient>
<linearGradient id="paint37_linear_142_2388" x1="8.61151" y1="-269.883" x2="8.61151" y2="1160.74" gradientUnits="userSpaceOnUse">
<stop stop-color="#2E4737"/>
<stop offset="1" stop-color="#218B46"/>
</linearGradient>
<linearGradient id="paint38_linear_142_2388" x1="-25.1925" y1="-276.046" x2="-25.1925" y2="1174.5" gradientUnits="userSpaceOnUse">
<stop stop-color="#2E4737"/>
<stop offset="1" stop-color="#218B46"/>
</linearGradient>
<linearGradient id="paint39_linear_142_2388" x1="-58.9492" y1="-285.023" x2="-58.9492" y2="1193.32" gradientUnits="userSpaceOnUse">
<stop stop-color="#2E4737"/>
<stop offset="1" stop-color="#218B46"/>
</linearGradient>
<linearGradient id="paint40_linear_142_2388" x1="-91.3306" y1="-295.801" x2="-91.3306" y2="1215.73" gradientUnits="userSpaceOnUse">
<stop stop-color="#2E4737"/>
<stop offset="1" stop-color="#218B46"/>
</linearGradient>
</defs>
</svg>
