<svg width="194" height="56" viewBox="0 0 194 56" fill="none" xmlns="http://www.w3.org/2000/svg">
<path d="M27.834 48.3285C33.8226 48.2802 39.3619 46.7877 43.8617 44.2965L39.7332 40.168C36.1244 41.0293 32.0924 41.5157 27.8377 41.5417V48.3322L27.834 48.3285Z" fill="#464646"/>
<path d="M54.6657 31.3057C52.5458 35.0926 47.2923 38.241 40.3718 40.0045L44.3741 44.0068C49.6573 40.929 53.4182 36.444 54.6657 31.3057Z" fill="#464646"/>
<path d="M27.834 40.9662C31.3128 40.8919 34.4686 39.4922 36.8076 37.2423L27.834 28.2725V40.9699V40.9662Z" fill="#D3FA52"/>
<path d="M55.1074 27.8643H41.5041C41.4299 31.499 39.9671 34.7959 37.6169 37.2388L39.9151 39.5407C48.7587 37.3725 54.881 32.9655 55.1037 27.8643H55.1074Z" fill="white"/>
<path d="M27.834 55.1594C35.226 55.0815 41.9274 52.0853 46.8393 47.2737L44.2776 44.7119C39.6701 47.3034 33.986 48.8479 27.8303 48.8961V55.1594H27.834Z" fill="#1F1A1A"/>
<path d="M39.9151 15.6191L37.6169 17.921C39.9634 20.364 41.4299 23.6608 41.5041 27.2956H55.1074C54.8847 22.1906 48.7625 17.7836 39.9188 15.6191H39.9151Z" fill="white"/>
<path d="M27.834 26.891L36.8076 17.9211C34.4649 15.6749 31.3091 14.2678 27.834 14.1973V26.8947V26.891Z" fill="#D3FA52"/>
<path d="M32.0665 14.3719C34.0082 15.0402 35.7643 16.1243 37.2123 17.5165L39.2617 15.4597C37.0118 14.9436 34.5948 14.5724 32.0627 14.3682L32.0665 14.3719Z" fill="white"/>
<path d="M44.3778 11.1602L40.3755 15.1587C47.296 16.926 52.5494 20.0669 54.6694 23.8576C53.4219 18.7192 49.6647 14.2343 44.3778 11.1602Z" fill="#464646"/>
<path d="M27.834 13.622C32.0888 13.6479 36.1208 14.1343 39.7295 14.9957L43.858 10.8671C39.3582 8.37221 33.8226 6.88342 27.8303 6.83887V13.622H27.834Z" fill="#464646"/>
<path d="M44.79 44.4153L47.2441 46.8731C50.6709 43.372 53.1807 38.9613 54.3651 34.042C52.6164 38.1965 49.2304 41.8015 44.79 44.4153Z" fill="#1F1A1A"/>
<path d="M27.834 6.26332C33.9896 6.31158 39.6738 7.85978 44.2812 10.4512L46.843 7.88948C41.9274 3.07411 35.226 0.0779666 27.834 0V6.26332Z" fill="#1F1A1A"/>
<path d="M40.9361 27.296C40.8619 23.821 39.4622 20.6689 37.216 18.3262L28.2424 27.296H40.9398H40.9361Z" fill="#D3FA52"/>
<path d="M39.2655 39.6994L37.2161 37.6426C35.7644 39.0386 34.0121 40.1227 32.0703 40.7872C34.6024 40.583 37.0193 40.2118 39.2692 39.6957L39.2655 39.6994Z" fill="white"/>
<path d="M37.2124 36.8408C39.4586 34.4981 40.8583 31.3423 40.9325 27.8672H28.2351L37.2087 36.8408H37.2124Z" fill="#D3FA52"/>
<path d="M44.79 10.7478C49.2304 13.3616 52.6164 16.9666 54.3651 21.1211C53.1807 16.2018 50.6747 11.7948 47.2441 8.29004L44.79 10.7478Z" fill="#1F1A1A"/>
<path d="M10.3138 10.7478L7.85972 8.29004C4.42548 11.7948 1.92312 16.2018 0.73877 21.1211C2.48374 16.9666 5.87343 13.3616 10.3138 10.7478Z" fill="#1F1A1A"/>
<path d="M27.266 13.622V6.83887C21.2774 6.88342 15.7381 8.37221 11.2383 10.8671L15.3742 14.9957C18.9792 14.1343 23.0112 13.6479 27.266 13.622Z" fill="#464646"/>
<path d="M14.7247 15.1587L10.7261 11.1602C5.44295 14.2343 1.67827 18.7192 0.438232 23.8576C2.55076 20.0669 7.81164 16.926 14.7247 15.1587Z" fill="#464646"/>
<path d="M27.266 26.891V14.1973C23.7872 14.2715 20.6389 15.6786 18.2961 17.9211L27.266 26.891Z" fill="#D3FA52"/>
<path d="M10.3138 44.4153C5.87343 41.8015 2.48374 38.1965 0.73877 34.042C1.92312 38.9613 4.42548 43.372 7.85972 46.8731L10.3138 44.4153Z" fill="#1F1A1A"/>
<path d="M15.1886 39.5436L17.4868 37.2417C15.1404 34.7988 13.6701 31.5019 13.5959 27.8672H0C0.222762 32.9721 6.345 37.3791 15.1886 39.5436Z" fill="white"/>
<path d="M27.266 0C19.8778 0.0779666 13.1763 3.07411 8.26074 7.88948L10.8225 10.4512C15.43 7.85978 21.1141 6.31158 27.2623 6.26332V0H27.266Z" fill="#1F1A1A"/>
<path d="M27.266 40.966V28.2686L18.2961 37.2384C20.6389 39.4883 23.7909 40.8917 27.266 40.9623V40.966Z" fill="#D3FA52"/>
<path d="M10.7261 44.0029L14.7247 40.0006C7.80793 38.2371 2.55076 35.0924 0.438232 31.3018C1.67827 36.4401 5.44295 40.9251 10.7298 44.0029H10.7261Z" fill="#464646"/>
<path d="M11.2383 44.2963C15.7381 46.7912 21.2737 48.28 27.266 48.3283V41.5378C23.0112 41.5118 18.9792 41.0254 15.3742 40.1641L11.2383 44.2926V44.2963Z" fill="#464646"/>
<path d="M27.266 48.9C21.114 48.8518 15.4336 47.3073 10.8262 44.7158L8.2644 47.2776C13.1763 52.0892 19.8777 55.0854 27.266 55.1633V48.9Z" fill="#1F1A1A"/>
<path d="M23.0373 40.7911C21.0956 40.1229 19.3395 39.0425 17.8915 37.6465L15.8347 39.7033C18.0883 40.2194 20.5053 40.5906 23.0373 40.7948V40.7911Z" fill="white"/>
<path d="M23.0373 14.3721C20.5053 14.5763 18.0883 14.9475 15.8347 15.4636L17.8915 17.5204C19.3432 16.1282 21.0956 15.0404 23.0373 14.3758V14.3721Z" fill="white"/>
<path d="M17.8915 36.8408L26.8614 27.8672H14.1714C14.2456 31.3423 15.6453 34.4981 17.8915 36.8408Z" fill="#D3FA52"/>
<path d="M13.5959 27.2956C13.6701 23.6608 15.1404 20.364 17.4868 17.921L15.1886 15.6191C6.345 17.7836 0.222762 22.1906 0 27.2956H13.5959Z" fill="white"/>
<path d="M26.8614 27.296L17.8915 18.3262C15.6453 20.6689 14.2456 23.821 14.1714 27.296H26.8614Z" fill="#D3FA52"/>
<path d="M72.2085 26.1631V11.6176H78.2739C79.3629 11.6176 80.2743 11.7715 81.0082 12.0793C81.7469 12.387 82.3008 12.8179 82.6702 13.3719C83.0442 13.9259 83.2312 14.5674 83.2312 15.2966C83.2312 15.8506 83.1152 16.3454 82.8832 16.781C82.6512 17.2119 82.3316 17.5693 81.9244 17.8534C81.5172 18.1375 81.0461 18.3364 80.5111 18.45V18.5921C81.0982 18.6205 81.6403 18.7791 82.1375 19.0679C82.6394 19.3567 83.0419 19.7592 83.3449 20.2753C83.6479 20.7867 83.7994 21.3927 83.7994 22.0935C83.7994 22.8747 83.6006 23.5731 83.2028 24.1887C82.8051 24.7994 82.2298 25.2824 81.477 25.6375C80.7241 25.9879 79.8103 26.1631 78.7355 26.1631H72.2085ZM75.7241 23.3293H77.8974C78.6597 23.3293 79.2208 23.1849 79.5807 22.896C79.9453 22.6072 80.1276 22.2048 80.1276 21.6887C80.1276 21.3146 80.04 20.9926 79.8648 20.7227C79.6896 20.4481 79.441 20.2374 79.119 20.0906C78.7971 19.9391 78.4112 19.8634 77.9614 19.8634H75.7241V23.3293ZM75.7241 17.5977H77.6702C78.0537 17.5977 78.3946 17.5338 78.6929 17.406C78.9912 17.2781 79.2232 17.0935 79.3889 16.852C79.5594 16.6105 79.6446 16.3193 79.6446 15.9784C79.6446 15.4907 79.4718 15.1072 79.1261 14.8279C78.7805 14.5485 78.3141 14.4088 77.727 14.4088H75.7241V17.5977ZM87.7554 16.7455H90.994C92.1825 16.7455 93.2147 16.9372 94.0906 17.3208C94.9666 17.7043 95.6437 18.2441 96.1219 18.9401C96.6048 19.6361 96.8463 20.4552 96.8463 21.3975C96.8463 22.3397 96.6048 23.1683 96.1219 23.8833C95.6437 24.5982 94.9666 25.1569 94.0906 25.5594C93.2147 25.9619 92.1825 26.1631 90.994 26.1631H85.5608V11.6176H89.0693V23.379H90.994C91.5054 23.379 91.9363 23.2914 92.2866 23.1162C92.6418 22.9363 92.9093 22.6948 93.0892 22.3918C93.2739 22.084 93.3638 21.7431 93.3591 21.3691C93.3638 20.8293 93.1626 20.3795 92.7554 20.0196C92.3482 19.655 91.7611 19.4727 90.994 19.4727H87.7554V16.7455ZM101.456 11.6176V26.1631H97.9472V11.6176H101.456ZM113.59 11.6176V14.4727H107.169V26.1631H103.654V11.6176H113.59ZM128.379 18.8904C128.379 20.4907 128.071 21.8473 127.455 22.96C126.84 24.0727 126.006 24.9178 124.955 25.4955C123.909 26.0731 122.735 26.3619 121.433 26.3619C120.126 26.3619 118.949 26.0708 117.903 25.4884C116.856 24.906 116.025 24.0608 115.41 22.9529C114.799 21.8402 114.494 20.486 114.494 18.8904C114.494 17.29 114.799 15.9334 115.41 14.8208C116.025 13.7081 116.856 12.8629 117.903 12.2852C118.949 11.7076 120.126 11.4188 121.433 11.4188C122.735 11.4188 123.909 11.7076 124.955 12.2852C126.006 12.8629 126.84 13.7081 127.455 14.8208C128.071 15.9334 128.379 17.29 128.379 18.8904ZM124.785 18.8904C124.785 17.9434 124.65 17.1432 124.38 16.4898C124.115 15.8364 123.731 15.3416 123.229 15.0054C122.732 14.6692 122.133 14.5012 121.433 14.5012C120.737 14.5012 120.138 14.6692 119.636 15.0054C119.134 15.3416 118.748 15.8364 118.478 16.4898C118.213 17.1432 118.08 17.9434 118.08 18.8904C118.08 19.8373 118.213 20.6375 118.478 21.2909C118.748 21.9443 119.134 22.4391 119.636 22.7753C120.138 23.1115 120.737 23.2796 121.433 23.2796C122.133 23.2796 122.732 23.1115 123.229 22.7753C123.731 22.4391 124.115 21.9443 124.38 21.2909C124.65 20.6375 124.785 19.8373 124.785 18.8904ZM129.799 29.6645V23.4216H130.8C131.137 23.1943 131.444 22.8771 131.724 22.4699C132.003 22.058 132.242 21.4803 132.441 20.7369C132.64 19.9888 132.782 19.0016 132.867 17.7753L133.322 11.6176H143.272V23.4216H144.835V29.6574H141.454V26.1631H133.18V29.6645H129.799ZM134.835 23.4216H139.891V14.4727H136.475L136.248 17.7753C136.186 18.6986 136.087 19.513 135.95 20.2185C135.812 20.924 135.649 21.5395 135.46 22.0651C135.27 22.5859 135.062 23.0381 134.835 23.4216ZM146.447 26.1631V11.6176H149.962V17.4557H155.694V11.6176H159.202V26.1631H155.694V20.3179H149.962V26.1631H146.447ZM163.673 16.7455H166.912C168.1 16.7455 169.133 16.9372 170.009 17.3208C170.885 17.7043 171.562 18.2441 172.04 18.9401C172.523 19.6361 172.764 20.4552 172.764 21.3975C172.764 22.3397 172.523 23.1683 172.04 23.8833C171.562 24.5982 170.885 25.1569 170.009 25.5594C169.133 25.9619 168.1 26.1631 166.912 26.1631H161.479V11.6176H164.987V23.379H166.912C167.423 23.379 167.854 23.2914 168.205 23.1162C168.56 22.9363 168.827 22.6948 169.007 22.3918C169.192 22.084 169.282 21.7431 169.277 21.3691C169.282 20.8293 169.081 20.3795 168.673 20.0196C168.266 19.655 167.679 19.4727 166.912 19.4727H163.673V16.7455ZM177.374 11.6176V26.1631H173.865V11.6176H177.374ZM179.572 11.6176H183.08V19.9983H183.201L188.925 11.6176H191.951V26.1631H188.435V17.7682H188.343L182.548 26.1631H179.572V11.6176ZM187.193 7.75399H189.479C189.475 8.64415 189.139 9.35911 188.471 9.89888C187.808 10.4387 186.908 10.7085 185.772 10.7085C184.636 10.7085 183.734 10.4387 183.066 9.89888C182.403 9.35911 182.074 8.64415 182.079 7.75399H184.345C184.34 8.06649 184.446 8.35059 184.664 8.60627C184.882 8.86195 185.251 8.98979 185.772 8.98979C186.279 8.98979 186.641 8.86432 186.859 8.61337C187.077 8.36242 187.188 8.07596 187.193 7.75399ZM72.2085 50.1631V35.6176H78.2739C79.3629 35.6176 80.2743 35.7715 81.0082 36.0793C81.7469 36.387 82.3008 36.8179 82.6702 37.3719C83.0442 37.9259 83.2312 38.5674 83.2312 39.2966C83.2312 39.8506 83.1152 40.3454 82.8832 40.781C82.6512 41.2119 82.3316 41.5693 81.9244 41.8534C81.5172 42.1375 81.0461 42.3364 80.5111 42.45V42.5921C81.0982 42.6205 81.6403 42.7791 82.1375 43.0679C82.6394 43.3567 83.0419 43.7592 83.3449 44.2753C83.6479 44.7867 83.7994 45.3927 83.7994 46.0935C83.7994 46.8747 83.6006 47.5731 83.2028 48.1887C82.8051 48.7994 82.2298 49.2824 81.477 49.6375C80.7241 49.9879 79.8103 50.1631 78.7355 50.1631H72.2085ZM75.7241 47.3293H77.8974C78.6597 47.3293 79.2208 47.1849 79.5807 46.896C79.9453 46.6072 80.1276 46.2048 80.1276 45.6887C80.1276 45.3146 80.04 44.9926 79.8648 44.7227C79.6896 44.4481 79.441 44.2374 79.119 44.0906C78.7971 43.9391 78.4112 43.8634 77.9614 43.8634H75.7241V47.3293ZM75.7241 41.5977H77.6702C78.0537 41.5977 78.3946 41.5338 78.6929 41.406C78.9912 41.2781 79.2232 41.0935 79.3889 40.852C79.5594 40.6105 79.6446 40.3193 79.6446 39.9784C79.6446 39.4907 79.4718 39.1072 79.1261 38.8279C78.7805 38.5485 78.3141 38.4088 77.727 38.4088H75.7241V41.5977ZM90.994 50.3619C89.8861 50.3619 88.9036 50.1726 88.0466 49.7938C87.1943 49.4102 86.522 48.8823 86.0295 48.21C85.5371 47.5376 85.2862 46.7635 85.2767 45.8875H88.8136C88.8278 46.2048 88.9296 46.4865 89.119 46.7327C89.3084 46.9742 89.5665 47.1636 89.8932 47.3009C90.2199 47.4382 90.5916 47.5068 91.0082 47.5068C91.4249 47.5068 91.7919 47.4334 92.1091 47.2867C92.4311 47.1352 92.682 46.9292 92.8619 46.6688C93.0419 46.4036 93.1294 46.1006 93.1247 45.7597C93.1294 45.4188 93.0324 45.1157 92.8335 44.8506C92.6347 44.5854 92.3529 44.3795 91.9883 44.2327C91.6285 44.0859 91.2024 44.0125 90.7099 44.0125H89.2966V41.5125H90.7099C91.1408 41.5125 91.5196 41.4415 91.8463 41.2994C92.1777 41.1574 92.4358 40.9585 92.6205 40.7029C92.8051 40.4424 92.8951 40.1441 92.8903 39.808C92.8951 39.4813 92.8169 39.1948 92.656 38.9486C92.4997 38.6976 92.2795 38.5035 91.9955 38.3662C91.7161 38.2289 91.3918 38.1602 91.0224 38.1602C90.6342 38.1602 90.2814 38.2289 89.9642 38.3662C89.6517 38.5035 89.4031 38.6976 89.2185 38.9486C89.0338 39.1995 88.9367 39.4907 88.9273 39.8222H85.5679C85.5774 38.9557 85.8188 38.1934 86.2923 37.5352C86.7658 36.8724 87.4097 36.3539 88.2241 35.9798C89.0433 35.6058 89.976 35.4188 91.0224 35.4188C92.0641 35.4188 92.9803 35.6011 93.771 35.9656C94.5617 36.3302 95.1773 36.8274 95.6176 37.4571C96.058 38.0821 96.2781 38.79 96.2781 39.5807C96.2829 40.3998 96.0153 41.0745 95.4756 41.6048C94.9405 42.1352 94.2516 42.4619 93.4088 42.585V42.6986C94.5357 42.8312 95.3856 43.1958 95.9585 43.7923C96.5362 44.3889 96.8226 45.1347 96.8179 46.0296C96.8179 46.8724 96.5693 47.6205 96.0722 48.2739C95.5797 48.9226 94.8932 49.4339 94.0125 49.808C93.1365 50.1773 92.1304 50.3619 90.994 50.3619ZM108.766 35.6176V38.4727H102.345V50.1631H98.8296V35.6176H108.766ZM109.858 50.1631V47.4074L110.255 47.3648C110.767 47.3032 111.183 47.0973 111.505 46.7469C111.827 46.3918 112.071 45.8283 112.237 45.0566C112.407 44.28 112.516 43.2313 112.564 41.9102L112.798 35.6176H123.004V50.1631H119.602V38.3875H116.044L115.816 43.2029C115.736 44.8648 115.525 46.2071 115.184 47.2298C114.843 48.2478 114.316 48.9912 113.601 49.46C112.89 49.9287 111.936 50.1631 110.738 50.1631H109.858ZM136.788 50.1631H133.279V38.4514H131.546C131.021 38.4514 130.578 38.5272 130.218 38.6787C129.858 38.8255 129.584 39.048 129.394 39.3463C129.21 39.6399 129.117 40.0116 129.117 40.4614C129.117 40.9112 129.21 41.2805 129.394 41.5693C129.579 41.8534 129.851 42.0665 130.211 42.2085C130.576 42.3459 131.018 42.4145 131.539 42.4145H134.685V45.1844H130.893C129.785 45.1844 128.824 45.0021 128.009 44.6375C127.2 44.2682 126.575 43.7332 126.134 43.0324C125.694 42.3269 125.474 41.4699 125.474 40.4614C125.474 39.4671 125.689 38.6077 126.12 37.8833C126.551 37.1541 127.164 36.5954 127.96 36.2071C128.755 35.8141 129.697 35.6176 130.786 35.6176H136.788V50.1631ZM128.599 43.5154H132.363L128.819 50.1631H124.977L128.599 43.5154ZM138.354 53.6645V47.4216H139.355C139.691 47.1943 139.999 46.8771 140.278 46.4699C140.558 46.058 140.797 45.4803 140.996 44.7369C141.195 43.9888 141.337 43.0016 141.422 41.7753L141.876 35.6176H151.827V47.4216H153.389V53.6574H150.009V50.1631H141.734V53.6645H138.354ZM143.389 47.4216H148.446V38.4727H145.03L144.803 41.7753C144.741 42.6986 144.642 43.513 144.504 44.2185C144.367 44.924 144.204 45.5395 144.014 46.0651C143.825 46.5859 143.617 47.0381 143.389 47.4216Z" fill="white"/>
</svg>
