<svg width="321" height="70" viewBox="0 0 321 70" fill="none" xmlns="http://www.w3.org/2000/svg">
<g clip-path="url(#clip0_144_3380)">
<path d="M195.938 0C168.855 0 146.907 15.6658 146.907 34.9979C146.907 54.3299 168.859 69.9957 195.938 69.9957C223.018 69.9957 244.97 54.3256 244.97 34.9979C244.97 15.6701 223.018 0 195.938 0ZM195.938 53.6668C177.239 53.6668 163.244 43.8147 163.244 34.9979C163.244 26.181 177.239 16.3246 195.938 16.3246C214.638 16.3246 228.633 26.181 228.633 34.9979C228.633 43.8147 214.685 53.6668 195.938 53.6668Z" fill="white"/>
<path d="M35.0404 7.88186e-06C15.699 -0.012826 0.0128479 15.6487 7.88565e-06 34.9765C-0.0128321 54.3042 15.6562 69.9829 34.9933 70C54.3303 70.0086 70.0165 54.3513 70.0336 35.0235V34.9808C70.0336 15.6573 54.3646 7.88186e-06 35.0404 7.88186e-06ZM53.7097 34.9765C53.7097 45.2863 45.3552 53.6454 35.0404 53.6583C24.7213 53.6711 16.341 45.3163 16.3282 34.9979C16.3154 24.6837 24.6742 16.3075 34.9976 16.299C45.3166 16.2861 53.6969 24.641 53.7097 34.9551V34.9765Z" fill="white"/>
<path d="M88.9299 1.57031C83.8624 1.57031 79.5738 6.17766 80.6224 11.4224C81.3928 15.2726 85.0008 17.8992 88.9299 17.8992H111.729L76.2482 64.6914C75.0798 66.2229 76.1798 68.4303 78.1058 68.4303H133.767C137.688 68.4303 141.304 65.7994 142.066 61.9535C143.123 56.7087 139.13 52.1014 134.071 52.1014H106.29L141.745 5.34774C142.918 3.79912 141.818 1.57031 139.866 1.57031H88.9256H88.9299Z" fill="white"/>
<path d="M321 9.7363V66.0683C321 66.5945 320.82 67.1078 320.495 67.5185C319.69 68.5495 318.205 68.7291 317.178 67.9206L272.991 32.8586V60.2631C272.991 64.772 269.336 68.4297 264.816 68.4297C260.297 68.4297 256.642 64.772 256.642 60.2631V3.92685C256.642 3.38356 256.826 2.85309 257.172 2.42957C257.99 1.42854 259.462 1.27881 260.468 2.09589L304.65 37.1408V9.7363C304.65 5.22307 308.31 1.56543 312.825 1.56543C317.341 1.56543 321 5.22307 321 9.7363Z" fill="white"/>
</g>
<defs>
<clipPath id="clip0_144_3380">
<rect width="321" height="70" fill="white"/>
</clipPath>
</defs>
</svg>
