<svg width="461" height="70" viewBox="0 0 461 70" fill="none" xmlns="http://www.w3.org/2000/svg">
<g clip-path="url(#clip0_144_3385)">
<path d="M430.595 35.7766C430.595 32.9219 434.563 30.625 439.702 30.625C444.841 30.625 450.581 33.1734 454.276 37.2531L460.989 29.1484C454.571 23.5594 448.11 20.65 439.997 20.65C429.895 20.65 419.454 25.2219 419.454 35.7766C419.454 48.7375 430.759 49.6672 439.997 50.4109C445.158 50.7938 449.739 51.1547 449.739 54.4906C449.739 58.0781 444.524 59.7516 439.943 59.7516C434.607 59.7516 428.813 57.5313 424.614 52.4891L417.453 59.9922C423.171 66.8719 431.469 69.9125 439.582 69.9125C449.772 69.9125 460.88 65.1438 460.88 54.2172C460.88 41.8906 449.444 40.7094 440.642 39.8344C435.121 39.2875 430.595 38.7953 430.595 35.7547V35.7875V35.7766ZM379.504 38.8172C381.34 34.3 385.276 31.6094 391.137 31.6094C396.997 31.6094 400.495 34.3984 402.015 38.8172H379.493H379.504ZM391.64 20.65C377.754 20.65 366.57 31.3031 366.57 45.3906C366.57 58.5922 376.42 69.9891 391.005 69.9891C399.807 69.9891 406.913 65.8219 411.943 58.7016L404.278 52.3141C401.589 56.3938 396.669 58.8328 390.841 58.8328C385.014 58.8328 378.706 54.425 378.203 47.9828H414.468V44.1437C414.468 30.5594 405.109 20.6391 391.672 20.6391H391.64V20.65ZM349.853 68.2719H360.983V22.3234H349.853V68.2719ZM355.374 0C350.848 0 347.021 3.72969 347.021 8.37813C347.021 13.0266 350.738 16.3734 355.571 16.3734C360.403 16.3734 363.738 13.0813 363.738 8.56406C363.738 4.04688 359.966 0.0328125 355.385 0.0328125V0H355.374ZM194.393 20.5734C189.178 20.5734 184.455 22.1375 180.453 24.7953V0.492188H169.323V45.3141C169.323 58.9531 180.562 69.9125 194.338 69.9125C208.114 69.9125 219.463 59.0078 219.463 45.1719C219.463 31.3359 208.333 20.5734 194.393 20.5734ZM136.644 21.3172C124.256 22.5531 114.154 33.0969 114.154 45.6203C114.154 58.8766 125.645 69.9781 139.082 69.9781C152.519 69.9781 164.02 58.8875 164.02 45.6203C164.02 39.9766 161.943 34.7703 158.608 30.6906L134.02 0.546875H119.642L136.665 21.3172H136.644ZM50.5772 48.4641L40.3874 22.3016H32.5811L22.3366 48.4641L12.0922 22.3016H0L17.9086 68.3047H25.715L36.4623 40.9062L47.2644 68.3047H55.0707L72.9247 22.3016H60.8435L50.599 48.4641H50.5772ZM249.617 20.6609C235.732 20.6609 224.492 31.3141 224.492 44.7672C224.492 58.2203 234.343 70 249.005 70C257.806 70 264.912 65.8328 269.942 58.7125L261.283 51.7781C258.757 56.2406 253.924 58.8438 249.092 58.8438C242.816 58.8438 236.65 54.4359 236.158 47.9938H272.533V44.6469C272.533 30.5594 263.119 20.65 249.65 20.65H249.617V20.6609ZM289.37 32.8234V22.3563H278.24V68.3047H289.37V48.9125C289.37 39.4844 299.614 33.7313 309.717 33.7313V22.3891H308.58C300.03 22.3891 293.809 25.4844 289.37 32.8563V32.8234ZM324.684 32.8234V22.3563H313.554V68.3047H324.684V48.9125C324.684 39.4844 334.929 33.7313 345.031 33.7313V22.3891H343.894C335.344 22.3891 329.123 25.4844 324.684 32.8563V32.8234ZM97.3168 68.2719H108.447V0.546875H97.3168V68.2719ZM139.158 58.9859C131.494 58.9859 125.273 52.9047 125.273 45.3469C125.273 37.7891 131.494 31.6531 139.104 31.6531C146.713 31.6531 153.131 37.7344 153.131 45.3469C153.131 52.9594 146.855 58.9859 139.191 58.9859H139.158ZM194.327 58.9859C186.773 58.9859 180.442 53.0359 180.442 45.2922C180.442 37.5484 186.412 31.6531 194.382 31.6531C202.352 31.6531 208.322 37.7891 208.322 45.2922C208.322 52.7953 201.959 58.9859 194.306 58.9859H194.338H194.327ZM78.0743 68.2719H89.2043V22.3234H78.0743V68.2719ZM83.519 0C78.9926 0 75.2207 3.72969 75.2207 8.44375C75.2207 13.1578 79.1894 16.4391 83.519 16.4391C88.3515 16.4391 92.0141 12.4688 92.0141 8.19219C92.0141 3.91562 88.1875 0 83.519 0ZM237.448 38.8172C239.34 34.3 243.221 31.6094 248.994 31.6094C254.766 31.6094 258.549 34.3984 260.047 38.8172H237.415H237.437H237.448Z" fill="white"/>
</g>
<defs>
<clipPath id="clip0_144_3385">
<rect width="461" height="70" fill="white"/>
</clipPath>
</defs>
</svg>
