<svg width="474" height="70" viewBox="0 0 474 70" fill="none" xmlns="http://www.w3.org/2000/svg">
<g clip-path="url(#clip0_144_3387)">
<mask id="mask0_144_3387" style="mask-type:luminance" maskUnits="userSpaceOnUse" x="0" y="0" width="71" height="70">
<path d="M70.0079 0H0V70H70.0079V0Z" fill="white"/>
</mask>
<g mask="url(#mask0_144_3387)">
<path d="M35.0039 70C54.3361 70 70.0079 54.33 70.0079 35C70.0079 15.67 54.3361 0 35.0039 0C15.6718 0 0 15.67 0 35C0 54.33 15.6718 70 35.0039 70Z" fill="white"/>
<path d="M40.6744 57.0503V19.577H36.2872C33.1135 19.577 30.7099 20.2536 29.0764 21.5836C27.4429 22.8903 26.6261 24.617 26.6261 26.7636C26.6261 28.397 26.9061 29.797 27.4895 30.9403C28.0729 32.0836 28.913 33.157 30.0098 34.1136C31.1066 35.0703 32.5068 36.1203 34.187 37.287L38.3641 40.087L26.1127 57.027H16.895L28.563 41.1603L34.047 46.0603L29.7298 43.3303C27.5596 41.907 25.4827 40.3436 23.5224 38.6403C21.7956 37.1003 20.4654 35.4203 19.5553 33.6003C18.6452 31.7803 18.1785 29.6336 18.1785 27.1836C18.1785 22.9603 19.6953 19.5536 22.729 16.9403C25.8094 14.3036 30.2899 12.9736 36.2172 12.9736H49.262V57.0036H40.6744V57.0503Z" fill="#282828"/>
</g>
<path d="M110.986 70C91.6637 70 75.9819 54.3667 75.9819 35.07C75.9819 15.7733 91.6637 0 110.986 0C130.308 0 145.99 15.75 145.99 35.07C145.99 54.39 130.285 70 110.986 70Z" fill="white"/>
<path d="M105.548 4.73633L66.5073 65.6597H84.406L106.972 30.543L106.412 30.2863L100.158 55.4163L113.389 57.7497L126.994 40.6463L126.247 40.273L121.65 59.7097L150.493 54.203L144.613 44.5197L134.205 46.8997L135.442 48.2997L140.296 28.023L129.024 20.4863L114.253 39.0597L114.976 39.433L121.043 15.0963C121.043 15.0963 105.525 4.73633 105.548 4.73633Z" fill="#282828"/>
<path d="M105.548 4.73633L66.5073 65.6597H84.406L106.972 30.543L106.412 30.2863L100.158 55.4163L113.389 57.7497L126.994 40.6463L126.247 40.273L121.65 59.7097L133.248 57.493L140.296 28.023L129.024 20.4863L114.253 39.0597L114.976 39.433L121.043 15.0963C121.043 15.0963 105.525 4.73633 105.548 4.73633Z" fill="#282828"/>
<path d="M159.408 57.0495L181.181 13.0195H197.749L201.133 39.8295L217.935 13.0195H234.363V57.0495H218.285V33.4129L203.373 57.0495H187.295L184.191 33.2029L172.36 57.0495H159.385H159.408ZM283.742 48.3229C283.742 49.8162 283.765 51.2862 283.812 52.7095C283.859 54.1562 283.952 55.5795 284.092 56.9562H269.18C268.83 56.2562 268.527 55.5329 268.317 54.7862C268.014 53.8062 267.827 52.7795 267.734 51.7529C266.193 53.5729 264.257 55.0895 261.9 56.2795C259.589 57.4462 256.299 58.0062 252.029 58.0062C247.758 58.0062 244.234 57.0029 241.644 54.9729C239.1 52.9662 237.817 50.2595 237.817 46.8995C237.817 43.7729 238.704 41.3695 240.477 39.6895C242.297 37.9629 245.144 36.7495 248.972 36.0962C252.822 35.3729 257.746 35.0229 263.743 35.0229H267.5V34.2295C267.5 32.6895 266.847 31.5229 265.563 30.7062C264.28 29.8895 261.83 29.4929 258.283 29.4929C254.735 29.4929 251.515 29.9595 248.481 30.8695C245.494 31.7329 243.068 32.5962 241.201 33.4595V23.7995C243.324 23.0295 246.148 22.2595 249.695 21.4895C253.289 20.6729 257.396 20.2762 262.016 20.2762C266.637 20.2762 270.604 20.7195 273.848 21.5829C277.068 22.3995 279.518 23.8229 281.198 25.8295C282.879 27.7895 283.719 30.5429 283.719 34.0429C283.719 34.0429 283.719 48.2995 283.719 48.3229H283.742ZM288.643 21.3729H303.554L304.418 27.4862C306.238 25.0829 308.432 23.3329 310.975 22.2362C313.519 21.1395 316.459 20.5795 319.773 20.5795C323.53 20.5795 326.89 21.2562 329.854 22.5862C332.771 23.8695 335.221 26.0162 336.925 28.7229C338.652 31.4529 339.515 34.9295 339.515 39.1062C339.515 43.2829 338.652 46.7595 336.925 49.5595C335.245 52.2895 332.888 54.3662 329.854 55.7662C326.82 57.1662 323.367 57.8662 319.469 57.8662C316.692 57.8662 313.915 57.3762 311.325 56.3495C308.828 55.2995 306.658 53.6429 304.838 51.3795V66.3595H288.619V21.3729H288.643ZM386.514 39.1062C386.514 35.5595 387.47 32.3862 389.407 29.5862C391.368 26.8095 394.168 24.6162 397.762 23.0295C401.425 21.3962 405.719 20.5795 410.666 20.5795C415.614 20.5795 420.117 21.4662 423.571 23.2395C427.072 25.0129 429.522 27.5329 430.922 30.7995C432.369 34.0662 432.556 37.9395 431.505 42.3962H403.036C403.619 44.4729 404.879 46.0129 406.863 47.0862C408.893 48.0895 411.856 48.6029 415.8 48.6029C418.531 48.6029 421.074 48.3695 423.431 47.8795C425.648 47.3895 427.842 46.7829 429.989 46.0829V54.6462C427.912 55.6029 425.625 56.3729 423.081 56.9562C420.584 57.5395 417.294 57.8195 413.21 57.8195C404.226 57.8195 397.528 56.1629 393.094 52.8495C388.731 49.4895 386.537 44.8929 386.537 39.0829L386.514 39.1062ZM432.859 21.3729H474.024V30.5895H461.189V56.9562H444.97V30.5895H432.859V21.3729ZM342.619 21.3729H358.837V37.5195L374.192 21.3729H388.171L373.889 36.2129L391.111 56.9795H371.509L358.814 41.2762V56.9795H342.595V21.3729H342.619ZM410.736 28.6529C408.519 28.6529 406.769 29.3062 405.462 30.5895C404.156 31.8262 403.316 33.4595 402.942 35.4195H417.224C417.177 33.4595 416.64 31.8495 415.637 30.5895C414.633 29.2829 413 28.6529 410.736 28.6529ZM322.947 39.1062C322.947 36.2129 322.153 33.9495 320.566 32.2695C319.026 30.5429 316.809 29.6795 313.939 29.6795C311.302 29.6795 309.085 30.4962 307.311 32.1295C305.538 33.7162 304.651 36.0495 304.651 39.1295C304.651 42.2095 305.515 44.5895 307.241 46.2695C309.015 47.9029 311.255 48.7195 313.939 48.7195C316.926 48.7195 319.143 47.8562 320.636 46.1295C322.176 44.4029 322.947 42.0695 322.947 39.1295V39.1062ZM267.524 41.6262H263.86C260.359 41.6262 257.839 41.9062 256.299 42.4895C254.806 43.0729 254.059 44.1695 254.059 45.8029C254.059 47.2029 254.549 48.2295 255.506 48.9062C256.509 49.5362 257.722 49.8395 259.099 49.8395C261.223 49.8395 262.95 49.4429 264.28 48.6962C265.68 47.8795 266.754 46.9462 267.524 45.8962V41.6495V41.6262Z" fill="white"/>
</g>
<defs>
<clipPath id="clip0_144_3387">
<rect width="474" height="70" fill="white"/>
</clipPath>
</defs>
</svg>
